<?xml version="1.0" standalone="no"?>
<!DOCTYPE svg PUBLIC "-//W3C//DTD SVG 1.1//EN" "http://www.w3.org/Graphics/SVG/1.1/DTD/svg11.dtd" >
<svg xmlns="http://www.w3.org/2000/svg" xmlns:xlink="http://www.w3.org/1999/xlink" version="1.1">
<metadata>
Created by FontForge 20170731 at Tue May  1 18:49:02 2012
 By Aleksey,,,
</metadata>
<defs>
<font id="DoctorSoosBold" horiz-adv-x="1010" >
  <font-face 
    font-family="Doctor Soos Bold"
    font-weight="700"
    font-stretch="normal"
    units-per-em="2048"
    panose-1="2 0 5 0 0 0 0 0 0 0"
    ascent="1638"
    descent="-410"
    x-height="829"
    cap-height="1145"
    bbox="-151 -569 1426 1600"
    underline-thickness="150"
    underline-position="-442"
    unicode-range="U+0020-F002"
  />
<missing-glyph horiz-adv-x="944" 
d="M60 0v1434h824v-1434h-824zM110 50h724v1334h-724v-1334zM285 1148q31 28 58 43q53 30 112 30q92 0 148 -47.5t56 -127.5q0 -49 -23 -98.5t-87 -129.5q-63 -80 -99 -132t-36 -99q0 -38 24 -133h-32q-35 97 -35 148q0 76 81.5 218t81.5 217q0 57 -33 90t-91 33
q-38 0 -69 -17q-26 -15 -56 -40v45zM349 334l57 58q11 10 20 10q10 0 22 -11l56 -60q9 -11 9 -20q0 -11 -10 -22l-56 -62q-14 -14 -21 -14q-11 0 -20 10l-61 71q-7 9 -7 18q0 10 11 22z" />
    <glyph glyph-name=".notdef" horiz-adv-x="944" 
d="M60 0v1434h824v-1434h-824zM110 50h724v1334h-724v-1334zM285 1148q31 28 58 43q53 30 112 30q92 0 148 -47.5t56 -127.5q0 -49 -23 -98.5t-87 -129.5q-63 -80 -99 -132t-36 -99q0 -38 24 -133h-32q-35 97 -35 148q0 76 81.5 218t81.5 217q0 57 -33 90t-91 33
q-38 0 -69 -17q-26 -15 -56 -40v45zM349 334l57 58q11 10 20 10q10 0 22 -11l56 -60q9 -11 9 -20q0 -11 -10 -22l-56 -62q-14 -14 -21 -14q-11 0 -20 10l-61 71q-7 9 -7 18q0 10 11 22z" />
    <glyph glyph-name=".null" horiz-adv-x="0" 
 />
    <glyph glyph-name="nonmarkingreturn" horiz-adv-x="508" 
 />
    <glyph glyph-name="space" unicode=" " horiz-adv-x="508" 
 />
    <glyph glyph-name="space" unicode="&#xa0;" horiz-adv-x="508" 
 />
    <glyph glyph-name="exclam" unicode="!" horiz-adv-x="579" 
d="M526 1255q-158 -520 -229 -868q0 -5 -4 -5q-1 0 -4 1q-11 0 -39.5 5t-42.5 5q-2 0 -19.5 -1t-25.5 -1q-9 0 -9 6q21 185 51.5 541t34.5 401q4 7 9 7h2q155 -52 270 -80q6 -3 6 -8v-3zM338 121q0 -55 -47 -90t-105 -35q-51 0 -93 33.5t-42 87.5q0 63 42 102t103 39
q60 0 101 -39t41 -98z" />
    <glyph glyph-name="quotedbl" unicode="&#x22;" horiz-adv-x="778" 
d="M716 1311v-13q0 -53 -27 -117q-32 -73 -79 -108q-58 -39 -107 -39q-11 0 -11 6t7 15q37 39 51 119q1 2 1 4q0 4 -7 4q-106 2 -119 139v9q0 42 36 84q40 46 93 50q8 1 16 1q61 0 98 -41q42 -46 48 -113zM345 1280q0 -57 -36.5 -121.5t-83.5 -93.5q-17 -10 -51 -22
q-30 -11 -49 -11h-5q-13 1 -13 7q0 4 5 10q55 57 76 114q1 2 1 3q0 4 -7 8q-54 0 -82.5 40.5t-28.5 98.5q0 45 42 85t91 40q70 0 105.5 -47.5t35.5 -110.5z" />
    <glyph glyph-name="numbersign" unicode="#" horiz-adv-x="1669" 
d="M440 491q3 17 5 33q9 57 17 109q-253 21 -325 21h-5q-8 3 -8 8v2q10 29 37 89q25 53 33 77q4 6 6 6q44 -4 287 -42q36 232 53 304q0 1 8 4q25 0 83 7q65 7 96 8q8 -1 8 -10q-23 -66 -86 -338q66 -10 141 -23q45 287 64 368v1q0 1 8 4h6q25 0 77 6q64 7 96 9q7 -2 7 -11
q-26 -74 -101 -403q168 -27 373 -61h1q4 0 5 -6l-13 -96q-1 -6 -7 -6h-3q-53 5 -384 39l-2 -8q-19 -87 -35 -163q150 -23 327 -53h1q4 0 5 -7q0 2 -14 -96q-1 -6 -6 -6h-3q-50 5 -337 35q-57 -270 -67 -316q-2 -7 -8 -7h-1q-92 16 -95 16q-5 4 -5 6v2q1 8 30 208
q8 54 15 104q-69 7 -148 15q-13 1 -25 3q-66 -312 -77 -363q-1 -7 -6 -7h-2q-83 14 -96 16q-4 3 -4 6v2q1 7 29 207q11 80 22 151q-301 26 -387 26h-9q-8 2 -8 7v3q10 29 37 88q25 54 32 77q4 6 6 6q49 -3 352 -51zM615 620q-6 -26 -12 -54q-11 -51 -20 -97q74 -13 161 -27
q8 51 14 98q5 34 10 65q-39 4 -81 9q-37 3 -72 6z" />
    <glyph glyph-name="dollar" unicode="$" horiz-adv-x="864" 
d="M749 382q20 -47 20 -106q0 -132 -120 -204q-101 -61 -233 -72q-11 -70 -16 -100q-1 -6 -4 -6q-1 0 -2 1q-41 8 -95 26h-1q-2 0 -3 7q2 17 8 72q-131 9 -226 69v1q10 22 20 49q11 29 22 65q11 35 18 52q108 -58 184 -74q5 49 11 104q10 96 21 196q-61 24 -70 28
q-80 37 -122 111q-43 74 -43 166q0 134 106 220q86 69 200 83q12 96 20 139q3 5 6 6q9 -1 23 -1q24 0 61 3q21 1 43 4q17 3 27 3q6 -2 6 -6v-3q-7 -42 -24 -154q70 -17 132 -56q-15 -26 -39 -76q-25 -51 -39 -80q-1 0 -1 1q-42 20 -80 31q-23 -150 -45 -289q-2 -14 -4 -29
q2 -1 3 -2q59 -24 97 -46q37 -21 78 -55q41 -32 61 -78zM365 619q10 -7 18 -14q13 113 26 223l4 36q-21 -9 -41 -22q-61 -38 -61 -106v-2q0 -37 11 -64q11 -28 43 -51zM529 148q50 34 50 101v3q0 44 -38 83q-21 21 -42 36q-20 -117 -33 -197l-9 -54q44 8 72 28z" />
    <glyph glyph-name="percent" unicode="%" horiz-adv-x="1261" 
d="M1009 1042q-56 -75 -281 -475q-266 -481 -297 -536q-3 -5 -6 -5q-2 0 -4 1l-86 43q-3 3 -3 5t1 3q2 6 85 182t150.5 318.5t145.5 301t108 210.5q0 2 9 2q22 -9 83.5 -19t90.5 -18q5 -3 5 -9q0 -2 -1 -4zM1179 315q0 -133 -63.5 -221t-190.5 -88q-92 0 -150.5 70.5
t-58.5 167.5q0 129 59.5 221t179.5 92q103 0 163.5 -68.5t60.5 -173.5zM577 854q0 -106 -74 -194.5t-178 -88.5q-109 0 -176.5 85t-67.5 198q0 123 65.5 203t186.5 80q119 0 181.5 -82t62.5 -201zM1044 301q0 125 -82 125q-58 0 -83.5 -52t-25.5 -118q0 -45 24.5 -80
t65.5 -35q47 0 74 54.5t27 105.5zM429 887q0 49 -26.5 83t-75.5 34q-99 0 -99 -139q0 -140 93 -140q108 0 108 162z" />
    <glyph glyph-name="ampersand" unicode="&#x26;" horiz-adv-x="962" 
d="M907 420q-59 -82 -147 -209q-8 -10 -8 -16q0 -3 2 -5q69 -84 100 -124q2 -2 2 -5q0 -2 -2 -4q-39 -51 -88 -110q-3 -3 -6 -3t-6 3q-52 82 -95 141q-3 3 -5 3t-3 -3q-129 -88 -250 -88h-16q-133 8 -213 87q-74 73 -74 194v18q10 145 164 279q2 2 3 5v2q0 2 -1 3
q-49 65 -80 123q-52 94 -52 202q0 11 1 23q6 123 104 196q90 66 208 66h20q125 -6 204 -96q69 -80 69 -186q0 -13 -1 -27q-4 -45 -24.5 -87t-38 -67.5t-66.5 -66.5t-62.5 -50.5t-72.5 -52.5q-4 -1 -4 -4t2 -6q33 -49 41 -57q88 -111 131 -166q3 -3 5 -3q4 0 7 5
q49 92 113 205q2 5 5 5q2 0 5 -3q21 -17 69 -59t60 -52q2 -2 2 -4q0 -3 -2 -6zM571 881v12q0 50 -28 93q-33 48 -97 52h-10q-53 0 -100 -38q-51 -42 -54 -101v-8q0 -40 18 -84q19 -49 38.5 -75.5t58.5 -76.5q4 -3 6 -3q1 0 2 1q11 6 27 19q51 39 94 96t45 113zM547 207v8
q-37 43 -106.5 135t-88.5 115q-2 2 -5 3h-2q-2 0 -3 -1q-57 -55 -80 -98q-20 -38 -20 -93v-14q0 -57 43 -90t96 -35q8 -1 16 -1q34 0 73 14q48 16 77 57z" />
    <glyph glyph-name="quotesingle" unicode="'" horiz-adv-x="397" 
d="M345 1280q0 -57 -36.5 -121.5t-83.5 -93.5q-50 -34 -92 -34q-7 0 -13 1q-13 4 -13 9q0 4 5 8q55 49 76 112q1 2 1 4q0 5 -7 9q-56 2 -83.5 40.5t-27.5 98.5q0 45 42 85t91 40q70 0 105.5 -47.5t35.5 -110.5z" />
    <glyph glyph-name="parenleft" unicode="(" horiz-adv-x="645" 
d="M624 1253q1 -3 1 -5q0 -5 -7 -5q-162 -57 -247 -261t-85 -466q0 -117 9.5 -203t36 -179t84 -159.5t145.5 -103.5q4 0 4 -8l-25 -88q-3 -5 -6 -5q-2 0 -4 1q-131 47 -220 126.5t-132 184t-59.5 205t-16.5 223.5q0 297 141.5 517t356.5 300q2 1 4 1q3 0 6 -5q2 -10 7 -35.5
t7 -34.5z" />
    <glyph glyph-name="parenright" unicode=")" horiz-adv-x="634" 
d="M530 567q0 -268 -114.5 -498.5t-321.5 -328.5q-3 -1 -5 -1q-5 0 -6 5q-2 6 -5 14.5t-7 18.5t-6 16q-1 2 -1 4q0 3 5 6q139 68 214 266.5t75 436.5q0 121 -13.5 223t-47 207.5t-102.5 191.5t-169 142q-4 2 -4 10l39 90q0 4 8 4q152 -59 258.5 -187t154.5 -286t48 -334z
" />
    <glyph glyph-name="asterisk" unicode="*" horiz-adv-x="829" 
d="M727 845q0 11 1 34v33q0 3 -2 6q-1 1 -3 1q-1 0 -2 -1q-155 -71 -273 -78q-8 0 -8 5q0 1 1 3v-1q0 1 87 241q1 2 1 3q0 4 -6 5q-29 4 -82 10q-58 6 -87 10q-6 0 -6 -7q1 -29 1 -56q0 -130 -18 -202q-2 -4 -4 -5h-2q-2 0 -4 1q-141 121 -181 156q-3 1 -5 1q-3 0 -5 -2
q-21 -33 -69 -133q-1 -3 -1 -5t3 -3q133 -64 200 -100q7 -2 14 -7t7 -9q0 -2 -1 -3q-30 -41 -176 -172q-1 -1 -1 -4t1 -4q51 -49 111 -99q2 -1 4 -1q3 0 4 2q2 3 140 217q3 3 4 3q3 0 6 -3q16 -28 115 -218q4 -4 6 -4t4 2l107 80q2 3 2 5t-2 3q-122 136 -154 196v4q0 4 5 4
q16 1 58 1q88 0 207 -8h2q1 0 2 1q2 2 2 5z" />
    <glyph glyph-name="plus" unicode="+" horiz-adv-x="874" 
d="M806 472q-32 -2 -274 -8q-7 0 -7 -7l-4 -331v-3q0 -5 -6 -5h-168q-7 0 -9 8q-2 63 -10 327q0 7 -9 7l-244 -5h-2q-4 0 -4 7q0 36 -3 108q0 21 -6 85q2 4 9 8l244 -8q4 2 6 8q-4 124 -13 309q0 21 13 23q77 13 211 40q4 0 8 -6q-5 -189 -11 -372q0 -6 7 -6l263 -9
q9 0 9 -6q2 -37 8 -157q0 -7 -8 -7z" />
    <glyph glyph-name="comma" unicode="," horiz-adv-x="448" 
d="M366 145q0 -90 -69 -182t-132 -92q-11 0 -11 10q0 2 1 6q18 19 37 103q1 7 1 13q0 19 -10 24q-49 20 -75.5 59t-26.5 76q0 57 41 96t98 39q66 0 106 -44t40 -108z" />
    <glyph glyph-name="hyphen" unicode="-" horiz-adv-x="499" 
d="M417 598q-2 -29 -6 -88t-6 -88q0 -4 -7 -8q-75 -15 -280 -29q-8 0 -8 6q-2 8 -11.5 74.5t-15.5 93.5q0 8 8 8q12 0 56.5 5.5t74.5 7.5q72 4 185 26q10 0 10 -8z" />
    <glyph glyph-name="hyphen" unicode="&#xad;" horiz-adv-x="499" 
d="M417 598q-2 -29 -6 -88t-6 -88q0 -4 -7 -8q-75 -15 -280 -29q-8 0 -8 6q-2 8 -11.5 74.5t-15.5 93.5q0 8 8 8q12 0 56.5 5.5t74.5 7.5q72 4 185 26q10 0 10 -8z" />
    <glyph glyph-name="period" unicode="." horiz-adv-x="442" 
d="M360 158q0 -62 -42 -96.5t-106 -34.5q-53 0 -92 41t-39 94q0 59 42 104t101 45q56 0 96 -48t40 -105z" />
    <glyph glyph-name="slash" unicode="/" horiz-adv-x="669" 
d="M666 1221q-52 -93 -248 -574q-51 -123 -143.5 -351t-116.5 -290q-3 -5 -6 -5q-1 0 -3 1q-45 14 -102 39q-4 0 -4 8q14 41 105.5 316.5t181.5 539.5t123 342q4 4 8 4q26 -6 96 -11t102 -9q8 -3 8 -7q0 -1 -1 -3z" />
    <glyph glyph-name="zero" unicode="0" horiz-adv-x="1073" 
d="M1001 573q0 -198 -138.5 -365t-332.5 -167q-205 0 -332 159.5t-127 370.5q0 230 123 381.5t350 151.5q223 0 340 -153.5t117 -377.5zM759 643q0 109 -59.5 183.5t-167.5 74.5q-117 0 -168 -92t-51 -215q0 -309 207 -309q71 0 120 32.5t74 89t35 114t10 122.5z" />
    <glyph glyph-name="one" unicode="1" horiz-adv-x="612" 
d="M470 1159q-6 -90 -10 -389q-4 -172 -4 -316v-94q2 -53 6 -164.5t6 -166.5q0 -6 -6 -6h-244q-6 0 -6 6q17 362 23 622q0 31 1 97.5t3 93.5q0 8 -5 8q-2 0 -5 -2q-39 -17 -101 -45q-2 -1 -4 -1q-3 0 -6 5q-22 86 -43 174q-1 1 -1 2q0 2 1 3q2 3 4 3q113 58 381 176q3 1 5 1
q5 0 5 -7z" />
    <glyph glyph-name="two" unicode="2" horiz-adv-x="987" 
d="M894 829q0 -153 -106 -280q-51 -64 -188 -148q-138 -86 -158 -116q-6 -6 -9 -15q-1 -3 -1 -5q0 -6 6 -9q139 -16 227 -33q72 -12 178 -47q14 -8 14 -15q0 -3 -1 -5q-15 -31 -42.5 -89.5t-43.5 -89.5q0 -2 -3 -3h-3q-2 0 -3 1q-258 113 -612 134q-6 0 -6 8v22q0 60 45 142
q20 36 58 75t62.5 58.5t87 61.5t73.5 48q94 66 144 128.5t50 148.5q0 73 -47 122.5t-121 49.5q-90 0 -155.5 -73t-94.5 -169q-3 -5 -5 -5t-3 1q-57 12 -168 37q-6 0 -6 8q16 70 39 123q49 129 157.5 195.5t241.5 66.5q152 0 272.5 -89t120.5 -239z" />
    <glyph glyph-name="three" unicode="3" horiz-adv-x="927" 
d="M897 1122q0 -10 -9.5 -24.5t-29.5 -36.5l-21 -25q-258 -334 -323 -420q-1 -3 -1 -5q0 -4 5 -5q225 -84 225 -297q0 -151 -105.5 -237t-262.5 -86q-56 0 -150 30.5t-129 65.5q-2 2 -2 8q16 39 59 172q3 5 7 5q2 0 4 -1q104 -69 204 -69q64 0 104 34.5t40 96.5
q0 96 -71 152.5t-173 60.5h-22q-17 0 -17 8q0 4 4 10q49 66 137.5 190.5t129.5 178.5q5 5 5 8q0 4 -12 4q-315 -29 -325 -29q-6 0 -6 7q-7 26 -22 96.5t-26 109.5q-1 2 -1 4q0 5 8 5q67 0 190 1t223.5 2t190.5 3q24 0 74.5 2t74.5 2q23 0 23 -21z" />
    <glyph glyph-name="four" unicode="4" horiz-adv-x="956" 
d="M862 709q-2 -21 -9 -64l-8 -43q-22 -145 -57 -596l-6 -6q-6 -2 -71.5 -12.5t-96.5 -16.5q-2 -1 -4 -1q-4 0 -4 7q0 64 8 277q1 2 1 4q0 4 -7 4q-295 -18 -574 -53q-1 -1 -3 -1t-4 3q-2 2 -2 5q0 1 1 3q8 19 74.5 181.5t131 318t130 309.5t86.5 191q3 5 6 5q2 0 4 -1
q43 -17 193 -99q4 -1 4 -4t-2 -6q-90 -143 -338 -672q-2 -3 -2 -5q0 -5 8 -5q266 17 289 21q6 0 6 6q4 98 4 276q0 7 4 7q2 0 4 -1q23 -2 101.5 -11t125.5 -13q7 0 7 -8z" />
    <glyph glyph-name="five" unicode="5" horiz-adv-x="897" 
d="M807 315q0 -129 -98.5 -221t-268.5 -92q-188 0 -344 94q-4 0 -4 6q16 91 18 193q0 7 7 7q2 0 6 -1q121 -68 188.5 -91.5t157.5 -23.5q47 0 85 34t38 81q0 74 -39 126t-98.5 74.5t-106.5 31t-88 8.5q-55 0 -72 -2q-3 -1 -6 -1q-5 0 -6 3q-2 4 -2 14q0 6 -1 26.5t-1 28.5
q-2 72 -16.5 239t-16.5 257q0 6 8 6q604 35 621 35q8 0 8 -8q-10 -52 -53 -207q-4 -4 -8 -4q-283 12 -342 12q-9 0 -9 -8q2 -41 4.5 -112.5t4.5 -114.5q0 -7 6 -7q207 -26 317.5 -135.5t110.5 -247.5z" />
    <glyph glyph-name="six" unicode="6" horiz-adv-x="1017" 
d="M917 373q0 -187 -118.5 -288t-303.5 -101q-182 0 -292.5 113.5t-110.5 295.5q0 297 150.5 518.5t422.5 337.5q9 0 9 -4q30 -53 102 -207q1 -3 1 -4q0 -4 -5 -4q-102 -41 -152 -67q-79 -43 -161 -132.5t-113 -187.5q-1 -2 -1 -4q0 -3 3 -5q2 -1 3 -1q3 0 5 2
q109 90 228 90q149 0 241 -100.5t92 -251.5zM702 356q0 72 -41 124t-116 52q-86 0 -156 -62t-70 -148q0 -72 59.5 -123.5t127.5 -51.5q96 0 146 57.5t50 151.5z" />
    <glyph glyph-name="seven" unicode="7" horiz-adv-x="819" 
d="M760 1124q-43 -190 -114 -557.5t-114 -548.5l-6 -6q-31 -8 -75 -17t-91 -18.5t-61 -11.5q-8 0 -8 8q139 607 198 910v3q0 5 -6 5q-16 0 -383 -17q-1 -1 -2 -1t-2 2q-2 2 -2 4q-29 159 -37 213q-1 2 -1 4q0 4 7 4q23 2 310.5 13t377.5 20q1 1 3 1t4 -2q2 -4 2 -8z" />
    <glyph glyph-name="eight" unicode="8" horiz-adv-x="1011" 
d="M960 1028q-43 -78 -71 -129q-99 -168 -236 -303q-2 -2 -2 -5t4 -7q4 -2 36 -27t37 -29t31.5 -25.5t33 -29.5t24.5 -28.5t23.5 -36t14.5 -37t12 -45t3 -50.5q0 -131 -106.5 -208.5t-241.5 -77.5q-94 0 -178 24.5t-148.5 91t-64.5 164.5q0 92 44 149.5t142 131.5q7 2 7 5
q0 2 -7 5q-114 76 -169.5 143.5t-55.5 176.5q0 127 98.5 203.5t229.5 76.5t311 -121q1 -1 3 -1h2q3 1 5 3q15 23 34 64t28 55q3 3 6 3q2 0 4 -1q70 -49 139 -106q11 -8 11 -18q0 -5 -3 -11zM653 877q2 3 2 6t-4 4q-110 74 -201 74q-133 0 -133 -117q0 -56 49.5 -103
t112.5 -75q3 -1 5 -1q6 0 11 3q31 24 89 96q18 24 69 113zM667 289q0 18 -5 35.5t-11 30t-21.5 27.5t-22.5 23.5t-28.5 21.5t-26.5 17.5t-28 18.5l-24 12h-17q-43 -10 -100.5 -67.5t-57.5 -104.5q0 -55 57.5 -89t117.5 -34q55 0 111 30t56 79z" />
    <glyph glyph-name="nine" unicode="9" horiz-adv-x="1030" 
d="M927 700q0 -421 -369 -815q-2 -2 -8 -2q-12 8 -79.5 58.5t-84.5 62.5q-3 3 -3 6q0 2 3 4q80 88 105.5 118t80 100.5t84 133t52.5 138.5q4 12 8 33q0 11 -4 11q-3 0 -8 -5q-154 -137 -322 -137q-119 0 -210 86t-91 202q0 187 138 319t327 132q178 0 279.5 -133t101.5 -312
zM702 825q0 66 -53.5 97.5t-123.5 31.5q-90 0 -165.5 -70.5t-75.5 -158.5q0 -59 42 -88t105 -29q84 0 177.5 67.5t93.5 149.5z" />
    <glyph glyph-name="colon" unicode=":" horiz-adv-x="493" 
d="M401 608q0 -59 -43 -95t-104 -36q-53 0 -92 41t-39 94q0 60 42 105t101 45q55 0 95 -48t40 -106zM379 121q0 -55 -47 -90t-105 -35q-51 0 -93 33.5t-42 87.5q0 63 42 102t103 39q60 0 101 -39t41 -98z" />
    <glyph glyph-name="semicolon" unicode=";" horiz-adv-x="452" 
d="M360 651q0 -49 -45 -85t-98 -36q-57 0 -91 41t-34 103q0 51 43 88t92 37q55 0 94 -43t39 -105zM354 133q0 -84 -64.5 -171t-123.5 -91q-8 0 -8 8q12 43 14 51q24 84 26 88q2 1 2 3q0 1 -1 3q-3 3 -5 3q-96 34 -96 123q0 49 37 83.5t86 34.5q59 0 96 -39t37 -96z" />
    <glyph glyph-name="semicolon" unicode="&#x37e;" horiz-adv-x="452" 
d="M360 651q0 -49 -45 -85t-98 -36q-57 0 -91 41t-34 103q0 51 43 88t92 37q55 0 94 -43t39 -105zM354 133q0 -84 -64.5 -171t-123.5 -91q-8 0 -8 8q12 43 14 51q24 84 26 88q2 1 2 3q0 1 -1 3q-3 3 -5 3q-96 34 -96 123q0 49 37 83.5t86 34.5q59 0 96 -39t37 -96z" />
    <glyph glyph-name="less" unicode="&#x3c;" horiz-adv-x="1197" 
d="M1090 228q3 -4 3 -8q-5 -26 -9 -96t-7 -102q-3 -8 -6 -8q-2 0 -3 1q-76 52 -471 247q-101 51 -288 143q-188 92 -238 116l-2 2q-5 0 -5 3q-20 58 -32 103q-1 1 -1 2q0 3 5 6q52 25 238 116q187 92 288 143q395 196 472 247q1 1 2 1q3 0 6 -7q3 -33 7 -102t9 -96
q0 -4 -3 -8q-64 -33 -281 -123q-217 -89 -443 -180q-59 -24 -103 -41q59 -25 138 -56q227 -92 443 -181q217 -90 281 -122z" />
    <glyph glyph-name="equal" unicode="=" horiz-adv-x="499" 
d="M419 455q-2 -29 -6 -88t-6 -88q0 -4 -7 -8q-75 -15 -280 -29q-8 0 -8 6q-2 8 -11.5 74.5t-15.5 93.5q0 8 8 8q12 0 56.5 5.5t74.5 7.5q72 4 185 26q10 0 10 -8zM420 736q-2 -29 -6 -88t-6 -88q0 -4 -7 -8q-75 -15 -280 -29q-8 0 -8 6q-2 8 -11.5 74.5t-15.5 93.5q0 8 8 8
q12 0 56.5 5.5t74.5 7.5q72 4 185 26q10 0 10 -8z" />
    <glyph glyph-name="greater" unicode="&#x3e;" horiz-adv-x="1197" 
d="M338 358q217 89 443 180q79 32 138 56q-43 17 -103 41q-226 91 -443 181q-217 89 -281 122q-3 4 -3 8q5 27 9 96q4 70 7 102q3 7 6 7q2 0 3 -1q76 -50 471 -247q101 -50 288 -142q192 -94 239 -117q4 -3 4 -5t-1 -3q-12 -44 -32 -102q0 -3 -5 -4l-1 -1q-51 -24 -239 -116
q-187 -92 -288 -143q-395 -195 -471 -247q-1 -1 -3 -1q-3 0 -6 8q-3 32 -7 101q-4 70 -9 96q0 4 3 8q64 33 281 123z" />
    <glyph glyph-name="question" unicode="?" horiz-adv-x="913" 
d="M837 958q0 -129 -74.5 -223t-199.5 -139q-16 -6 -62.5 -18.5t-76 -23.5t-64.5 -29.5t-52 -48.5t-17 -66q0 -21 12 -66q0 -4 -6 -8l-123 -37q-4 0 -10 8q-17 27 -17 86q0 103 58 174q20 27 42.5 48.5t40 35t46 27.5t44 20.5t54.5 20.5t57 20q74 29 116 67t42 107
q0 66 -42 105t-105 39q-82 0 -158 -47t-127 -121q-3 -3 -6 -3t-6 3q-52 72 -109 160v8q63 102 164.5 163.5t218.5 61.5q143 0 251.5 -92t108.5 -232zM381 117q0 -41 -25.5 -71t-66.5 -30q-43 0 -79 32t-36 75q0 41 35 69.5t76 28.5q40 0 68 -31.5t28 -72.5z" />
    <glyph glyph-name="at" unicode="@" horiz-adv-x="1675" 
d="M1368 751q58 -107 58 -239q0 -117 -31 -218q-30 -100 -86 -175q-67 -89 -144 -127q-70 -35 -132 -35h-11q-42 2 -95 40q-31 22 -49 54l-32 50q-1 4 -5 7q-1 1 -3 1t-5 -2q-81 -57 -149 -57q-99 0 -162 56q-68 59 -68 157q0 101 86 168q80 63 184 63q72 0 121 -21h3
q6 0 9 15q1 11 1 29q0 47 -28 79q-29 35 -74 35q-121 0 -234 -88q-2 -1 -3 -1q-2 0 -4 1q-4 1 -4 3q-32 106 -50 154v2q0 2 3 5q143 114 306 114q134 0 213 -84q77 -80 77 -212q0 -22 -7 -127q-7 -99 -17 -185l-8 -67q3 -8 10 -16q4 -4 25 -4h26q24 2 53 31q29 28 55 73
t44 102q17 56 21 116v30q0 98 -30 176q-36 87 -103 145q-67 59 -160 89q-92 30 -200 30q-118 0 -214 -40q-96 -39 -165 -112q-69 -72 -106 -173q-37 -100 -37 -222q0 -128 41 -230q42 -101 116 -171q74 -69 175 -106q102 -37 222 -37q118 0 205 16q86 16 132 44l-28 -177
q-49 -26 -78 -40q-28 -15 -58 -21q-29 -6 -70 -8q-40 -2 -118 -2q-151 0 -283 55q-133 55 -231 153q-100 98 -156 231q-56 134 -56 293q0 157 55 291q57 135 153 233q98 99 228 155q131 55 280 55q124 0 235 -39q111 -38 205 -123q95 -85 152 -192zM804 234q45 30 45 74
q0 24 -23 38q-19 12 -40 12h-7q-152 -5 -152 -100q0 -23 32 -38q27 -11 62 -11q43 0 83 25z" />
    <glyph glyph-name="A" unicode="A" horiz-adv-x="1030" 
d="M1003 14q0 -6 -6 -10q-82 -20 -242 -41q-8 0 -8 4q-4 17 -15.5 65t-15.5 64q-22 101 -51 199q0 6 -8 6q-228 -16 -279 -22q-4 -3 -4 -5q-33 -67 -108 -297q-5 -4 -11 -4q-18 4 -97 21.5t-122 28.5q-2 0 -4 3q-1 2 -1 3q0 2 1 4q90 200 273.5 582t273.5 583q4 7 7 7t5 -7
q123 -311 227 -633q21 -61 84.5 -253.5t100.5 -297.5zM630 467q-12 47 -34.5 124t-33.5 111q-2 7 -7 7t-7 -7q-10 -26 -46 -109t-56 -134q-1 -2 -1 -4q0 -1 1 -3t3 -2q1 0 3 1q121 6 172 8q7 0 7 4q0 2 -1 4z" />
    <glyph glyph-name="B" unicode="B" horiz-adv-x="995" 
d="M913 342q0 -113 -85 -193.5t-199 -115.5t-232 -35q-199 0 -267 20q-10 5 -10 15q2 69 2 90q0 33 -8 115q-1 1 -1 3t3 4q2 2 5 2q1 0 3 -1q63 -25 103 -25h6q10 0 10 6q2 82 2 163q0 80 -2 159q0 262 -6 348q0 6 -8 6q-35 -4 -135 -41h-3q-5 0 -8 6q0 35 -4 97q0 14 -4 57
t-4 68q0 8 8 10q35 12 131.5 23.5t167.5 11.5q70 0 132.5 -7.5t133 -29t120.5 -55t83 -93t33 -137.5q0 -74 -43 -139.5t-117 -104.5q-8 -4 -8 -7t10 -5q84 -22 137.5 -79.5t53.5 -135.5zM665 799q0 69 -56.5 100t-134.5 31h-12q-8 0 -8 -6q0 -31 -4 -117t-4 -133q0 -8 8 -8
l16 -2q195 0 195 135zM669 340q0 70 -48 107q-43 32 -104 32h-14l-53 -2q-6 0 -6 -8l-2 -125q0 -14 4 -129q0 -6 6 -6h16l11 -2q71 0 130.5 33.5t59.5 99.5z" />
    <glyph glyph-name="C" unicode="C" horiz-adv-x="958" 
d="M896 1075q-47 -198 -51 -225q-3 -7 -7 -7q-1 0 -3 1q-62 30 -131 30q-156 0 -268.5 -95t-112.5 -247q0 -317 346 -317q59 0 104 14q2 1 3 1q4 0 7 -7q13 -135 23 -184q0 -14 -10 -19q-21 -10 -86.5 -19t-100.5 -9q-235 0 -381.5 151.5t-146.5 384.5q0 265 186.5 429.5
t452.5 164.5q88 0 166 -30q10 -7 10 -17z" />
    <glyph glyph-name="D" unicode="D" horiz-adv-x="1093" 
d="M1011 563q0 -151 -64.5 -266t-173 -180.5t-232.5 -98t-257 -32.5q-106 0 -141 6q-6 6 -6 8q2 31 2 90q0 21 -2 49.5t-2 44.5q0 8 4 8q2 0 4 -2q12 0 38.5 -2t45.5 -4q1 -1 2 -1t2 1q2 2 2 6q0 23 -1 109t-1 111q0 421 -12 526q-6 6 -8 6q-31 0 -134 -16q-8 0 -8 6
q-8 123 -8 184q0 8 10 8q60 11 142 11q147 0 278 -27t253 -88.5t194.5 -178t72.5 -278.5zM778 575q0 89 -37 156.5t-94.5 103t-106.5 54t-90 22.5q-6 2 -11 2q-11 0 -11 -12l-2 -104v-64q0 -210 16 -526q3 -6 6 -6h2q146 20 237 115.5t91 258.5z" />
    <glyph glyph-name="E" unicode="E" horiz-adv-x="905" 
d="M855 197q-2 -7 -17 -55t-33.5 -108.5t-20.5 -66.5q-6 -6 -8 -6q-402 29 -631 62q-6 0 -6 6q-25 395 -27 766q0 90 4 299q0 6 6 6q41 4 158 12t181.5 13t158.5 15.5t166 22.5q8 0 8 -8q0 -18 -1 -38.5t-3 -45t-2 -39.5q0 -37 4 -110q0 -7 -6 -7q-70 -4 -209 -4t-213 -4
q-6 0 -6 -6q-3 -26 -3 -65q0 -20 1 -42q1 -35 1 -62q0 -26 -1 -46q0 -6 8 -6q24 -2 65 -4t45 -2q87 0 259 8h2q4 0 4 -6q-2 -51 -27 -207q0 -6 -6 -6q-25 0 -102 -2q-39 -1 -69 -1q-29 0 -50 1q-19 0 -60 1t-63 1q-6 0 -8 -6v-211q0 -2 6 -8q155 -21 487 -33q8 0 8 -8z" />
    <glyph glyph-name="F" unicode="F" horiz-adv-x="798" 
d="M795 1098q-5 -31 -18 -101.5t-17 -109.5q0 -8 -8 -8q-52 2 -205 14q-100 7 -158 7q-23 0 -39 -1q-6 0 -6 -6q-8 -208 -8 -276v-21q0 -6 6 -6q207 12 287 24q9 0 9 -4q0 -2 -1 -4q-6 -37 -12.5 -115.5t-8.5 -95.5q0 -6 -6 -6q-34 -1 -63 -1h-28q-20 1 -43 1t-49 -1
q-52 -1 -93 -5q-6 0 -6 -6v-37q0 -108 8 -365q0 -8 -8 -8q-152 13 -230 13q-8 4 -8 8q2 51 7 215t9 252q25 546 31 657q0 2 2 5q1 2 2 2t2 -1q174 -13 449 -13q91 0 194 1q9 0 9 -8z" />
    <glyph glyph-name="G" unicode="G" horiz-adv-x="1021" 
d="M985 395q0 -6 -7 -8l-131 -16q-6 0 -6 -9q6 -45 21.5 -181t21.5 -179q0 -6 -6 -8q-135 -33 -266 -33q-260 0 -402.5 168t-142.5 444q0 232 162 406t395 174q16 0 78 -4q6 0 6 -10q1 -19 1 -40q0 -72 -11 -171q0 -6 -8 -6q-17 4 -48 4q-139 0 -237 -96.5t-98 -235.5
q0 -84 8 -125q18 -109 95 -198t179 -89q2 0 70 6q8 0 8 9q-4 39 -21.5 164.5t-23.5 187.5q0 8 6 8q53 8 161.5 22.5t162.5 24.5q8 0 8 -6q4 -29 11 -97.5t14 -105.5z" />
    <glyph glyph-name="H" unicode="H" horiz-adv-x="1017" 
d="M902 1130q-20 -288 -28 -552q-2 -107 -2 -359v-211q0 -6 -7 -6q-12 0 -30.5 -1t-32.5 -1h-12q-86 0 -140 -10q-8 0 -8 8q2 57 2 172q0 123 -4 213q0 6 -6 6q-182 0 -264 -8q-6 0 -6 -8q0 -37 6 -363q0 -6 -8 -6q-7 1 -18 1t-24 -1q-28 -2 -36 -2q-19 0 -141 -12
q-9 0 -9 8q4 141 4 582q0 276 -18 493q0 8 8 8q221 0 250 2q8 0 8 -8q0 -18 -2 -51t-2 -49q-2 -47 -14 -367q0 -8 6 -8q20 0 98 -4h111q33 0 53 2q6 0 6 6q1 90 1 171q0 202 -7 349q0 9 6 9q7 -1 27 -1q58 0 227 7q6 0 6 -6v-3z" />
    <glyph glyph-name="I" unicode="I" horiz-adv-x="690" 
d="M601 -2q1 -2 1 -4q0 -4 -7 -4q-133 -13 -438 -39q-2 -1 -4 -1q-4 0 -4 7q-9 109 -15 156q0 8 9 8q14 2 54 6t52 6q6 0 6 8q-8 234 -37 752q0 8 -8 8l-119 -12q-6 0 -6 8q0 25 -4 82t-4 84q0 6 6 6q471 72 490 76q4 0 8 -6q4 -37 9 -102.5t7 -86.5q0 -6 -6 -6
q-27 -6 -80 -12t-78 -10q-6 0 -6 -7q33 -534 49 -755q2 -6 9 -6q86 8 102 12q8 0 8 -8q6 -154 6 -160z" />
    <glyph glyph-name="J" unicode="J" horiz-adv-x="819" 
d="M712 573q0 -69 -2 -111t-8 -115t-18.5 -120t-38 -104t-59.5 -90t-87 -56.5t-121 -23.5q-184 0 -266 102.5t-82 268.5l2 102q0 6 6 6q29 8 100.5 23.5t108.5 25.5q2 1 4 1q4 0 4 -7q0 -22 -2 -90v-68q0 -49 26.5 -92t78.5 -43q118 0 129 226q1 12 1 30q0 118 -22 520
q-2 33 -6 81t-4 75q0 8 6 8q217 19 236 23q8 0 8 -10q2 -25 2 -54t-2 -63q0 -53 3 -207t3 -238z" />
    <glyph glyph-name="K" unicode="K" horiz-adv-x="962" 
d="M923 141q-37 -53 -155 -180q-3 -3 -7 -3q-3 0 -6 3q-182 213 -377 399q-5 5 -8 5q-4 0 -4 -11q4 -82 4 -106q0 -53 6.5 -138t6.5 -98v-2q0 -4 -7 -4q-32 -4 -69 -7t-82 -6t-70 -5q-8 0 -8 6q0 14 1 45t1 45q0 416 -10 575q-21 353 -31 435q-1 2 -1 4q0 4 7 4
q113 0 256 10q8 0 8 -8q0 -6 -1 -20.5t-1 -16.5q-12 -137 -12 -346v-96q0 -7 12 -12q5 -2 8 -2q5 0 7 3q125 177 192 312q56 102 78 153q1 4 4 4t6 -2q21 -12 219 -94q5 -2 5 -5q0 -2 -3 -5q-251 -354 -319 -473q0 -6 2 -8q70 -78 154 -166q45 -47 192 -180q3 -5 3 -7
q0 -1 -1 -2z" />
    <glyph glyph-name="L" unicode="L" horiz-adv-x="780" 
d="M737 227q-7 -28 -19 -102t-20 -117q0 -2 -2 -4q-1 -1 -2 -1t-2 1q-40 1 -88 1q-178 0 -476 -17q-6 0 -6 8q1 38 1 108q0 212 -5 717q0 137 -6 275q0 8 8 8q9 -1 23 -1q63 0 223 15q8 0 8 -8q-8 -106 -21.5 -374.5t-23.5 -399.5q0 -14 -2 -39t-3 -46.5t-1 -41.5q0 -6 4 -6
h2q275 16 399 33q2 1 3 1q3 0 5 -2q2 -3 2 -5q0 -1 -1 -3z" />
    <glyph glyph-name="M" unicode="M" horiz-adv-x="1124" 
d="M1011 -16q0 -7 -6 -7q-56 -6 -240 -20q-2 -1 -4 -1q-4 0 -4 7q20 246 20 512q0 8 -4 9h-1q-4 0 -7 -5q-90 -137 -166 -266q-2 -6 -5 -6t-7 6q-21 25 -215 305q-3 5 -6 5q-1 0 -2 -1q-4 -2 -4 -8q-13 -338 -19 -537q0 -8 -4 -8q-41 -8 -119 -16q-6 0 -52 -6t-75 -10
q-10 0 -10 8q14 192 115 1202q2 13 7 13q4 0 9 -9q125 -213 207 -336q43 -63 174 -274q4 -5 8 -5q3 0 6 5q9 16 107 200q33 66 109.5 211.5t103.5 200.5q0 2 4 9t8 12.5t8 5.5q6 0 9.5 -6.5t5.5 -16.5v-10q0 -2 5 -123t10 -269.5t7 -207.5q4 -240 27 -563z" />
    <glyph glyph-name="N" unicode="N" horiz-adv-x="993" 
d="M885 1112q-2 -117 -7.5 -331t-8.5 -389t-3 -331v-79q0 -15 -9 -18q-2 -1 -4 -1q-7 0 -13 8q-29 29 -117 115t-131 129q-45 47 -129 138t-117 128q-3 5 -7 5q-1 0 -2 -1q-4 -1 -4 -5q0 -1 1 -3q2 -26 10 -95t10 -83q21 -172 43 -326q0 -8 -8 -8q-58 7 -120 7
q-51 0 -105 -5q-1 -1 -2 -1t-2 2q-2 3 -2 5q-7 70 -15 209q-2 19 -14 227.5t-17 315.5q0 4 -7 159.5t-13 221.5q0 8 6 11q2 1 3 1q5 0 9 -6q11 -14 44.5 -56t43.5 -57q226 -309 453 -553q3 -3 6 -3q1 0 3 1q4 1 4 5q0 2 -1 4q-14 305 -47 659q0 6 6 6q27 -1 65 -1
q74 0 189 3q9 0 9 -8z" />
    <glyph glyph-name="O" unicode="O" horiz-adv-x="1081" 
d="M1005 543q0 -84 -22.5 -182.5t-61.5 -163.5q-127 -230 -387 -230q-209 0 -334 156t-125 385q0 156 52 295t164 233t259 94q141 0 247.5 -87t157 -218t50.5 -282zM761 528q0 56 -8 110t-26.5 110.5t-58.5 91t-93 34.5q-129 0 -191.5 -99t-62.5 -251q0 -346 211 -346
q123 0 176 100.5t53 249.5z" />
    <glyph glyph-name="P" unicode="P" horiz-adv-x="1030" 
d="M977 846q-6 -174 -146.5 -313.5t-322.5 -194.5q-6 0 -6 -8q4 -62 13 -155t13 -161q0 -6 -6 -8q-49 -6 -110.5 -14t-108.5 -15h-1q-4 0 -7 7q-15 579 -45 862q0 7 -4 7q-2 0 -4 -1q-41 -10 -138 -49q-3 -1 -4 -1q-4 0 -4 5q-8 29 -22.5 109.5t-22.5 115.5q-1 3 -1 4
q0 4 5 4q109 50 261 84q142 31 247 31h12q76 -2 138.5 -14.5t128 -44t101.5 -94.5q34 -61 34 -146v-10zM717 795v8q0 69 -34 100q-36 33 -110 37q-59 0 -104 -16q-10 -6 -10 -15q6 -67 9 -114t5 -73t2 -32q0 -12 14 -166q0 -8 5 -8q2 0 6 2q84 33 149.5 112t67.5 165z" />
    <glyph glyph-name="Q" unicode="Q" horiz-adv-x="1118" 
d="M1069 141q-10 -24 -42 -94t-48 -106q-3 -6 -6 -6q-2 0 -4 2q-54 34 -201 153q-2 2 -4 2q-3 0 -6 -2q-121 -121 -264 -121q-138 0 -233 92.5t-134 216t-39 259.5q0 155 52 296.5t169 242t275 100.5q192 0 293.5 -146.5t101.5 -353.5q0 -232 -100 -424q-2 -3 -2 -6t4 -4
q143 -74 184 -92q4 0 4 -9zM770 639q0 115 -47 203t-152 88q-75 0 -130.5 -45t-81 -119t-36 -141.5t-10.5 -137.5q0 -51 7.5 -98t27 -97t60 -80t98.5 -30q47 0 88 27q3 3 3 6t-3 6q-35 33 -84 94q-2 2 -2 4q0 3 4 7q12 10 32.5 29.5t38 35t33.5 27.5q9 0 11 -2
q6 -6 18 -17.5t18 -17.5q39 -33 41 -35q3 -1 5 -1q5 0 8 5q53 148 53 289z" />
    <glyph glyph-name="R" unicode="R" horiz-adv-x="974" 
d="M956 59q2 -3 2 -6t-4 -4q-43 -20 -125 -50t-106 -40q-8 0 -8 4q-23 43 -75 137.5t-94 175t-71 144.5q-4 4 -8 4q-17 -4 -46.5 -8t-41.5 -6q-6 0 -6 -7q-3 -79 -3 -231q5 -116 5 -159v-19q0 -6 -7 -6h-221q-6 0 -6 6q0 139 6 280q6 207 15 674q0 7 -5 7q-1 0 -4 -1
q-14 0 -94 -6q-8 0 -8 8q2 31 2 86q0 15 -1 45.5t-1 45.5q0 8 6 8q168 16 277 16q272 0 387 -82q131 -90 131 -254q0 -94 -49.5 -181t-135.5 -136q-4 -1 -4 -4t2 -6q41 -68 146.5 -218.5t144.5 -216.5zM598 786v5q0 77 -59 124q-56 43 -127 43h-15q-14 0 -14 -6
q-4 -221 -8 -327q0 -9 10 -9h8q29 0 69 12q46 13 90 55t46 103z" />
    <glyph glyph-name="S" unicode="S" horiz-adv-x="864" 
d="M792 305q0 -88 -48 -154.5t-125.5 -101.5t-159.5 -51t-164 -16q-56 0 -166 12q-6 0 -6 6q-4 98 -6 145q-2 17 -5.5 45.5t-3.5 42.5q0 5 4 7q1 1 3 1t4 -1q86 -43 215 -43q63 0 122.5 22.5t59.5 75.5q0 72 -98 117q-78 30 -128.5 58t-100.5 70t-73.5 100t-23.5 136
q0 76 45 146q135 217 506 217q16 0 51 -2t53 -2q7 0 7 -9q-3 -32 -9 -127q-2 -18 -2 -114v-2q0 -4 -6 -4q-123 8 -127 8q-37 0 -78 -6.5t-86 -19.5t-73.5 -40.5t-28.5 -66.5q0 -35 25.5 -67t51 -47t64.5 -36q8 -4 64.5 -30.5t74 -37t60.5 -39t59.5 -52t32.5 -61.5t16 -79z
" />
    <glyph glyph-name="T" unicode="T" horiz-adv-x="962" 
d="M921 1151q-7 -104 -23 -266q0 -6 -6 -6q-29 -2 -168 -5.5t-168 -3.5q-6 0 -6 -8q6 -53 98 -876q0 -9 -6 -9q-22 0 -66 2.5t-67 2.5h-127q-8 0 -8 6q-4 86 -8 193.5t-9 191.5q-2 59 -6 236t-8 259q0 9 -8 9q-12 0 -73.5 -1.5t-86.5 -1.5q-49 0 -117 -6q-8 0 -8 9
q-2 20 -2 45q0 24 -1 39.5t-1 19.5l-6 68q0 8 6 8q305 35 866 102q9 0 9 -8z" />
    <glyph glyph-name="U" unicode="U" horiz-adv-x="1001" 
d="M919 674q0 -117 -7 -203t-32.5 -183.5t-71.5 -157.5t-128 -101t-197 -41q-137 0 -219 101t-106 259q-13 78 -25 198t-25.5 286.5l-19.5 240.5q0 8 6 8q35 6 108.5 25.5t131.5 30.5h2q5 0 8 -7q0 -26 5 -100t5 -115q13 -432 29 -540q8 -56 42 -99t93 -43q27 0 49.5 7.5
t39 24t27.5 31.5t18 42t12.5 44t7.5 50t3 47.5t1 47.5v79q0 226 -39 490q0 6 6 8q37 4 248 47q8 0 8 -6q20 -230 20 -471z" />
    <glyph glyph-name="V" unicode="V" horiz-adv-x="1087" 
d="M1062 1049q-72 -146 -182.5 -369t-197.5 -401.5t-163 -346.5q-3 -8 -7 -8q-3 0 -7 6q-47 97 -223 520.5t-250 620.5q0 8 4 8q62 29 223 97q2 1 4 1q4 0 7 -6q30 -90 115 -360t128 -389q2 -6 7 -6q4 0 6 6q59 139 168.5 417.5t119.5 305.5q0 4 9 4q63 -23 235 -90
q5 -3 5 -6q0 -2 -1 -4z" />
    <glyph glyph-name="W" unicode="W" horiz-adv-x="1306" 
d="M1265 1077q-33 -182 -121 -578.5t-141 -578.5q-4 -10 -12 -10t-13 8q-45 100 -147 292.5t-147 287.5q-4 7 -8 7t-7 -7q-16 -49 -79.5 -276.5t-96.5 -327.5q-5 -10 -11 -10h-1q-6 1 -8 7q-338 832 -451 1084q0 8 2 10q43 25 92 47q109 51 125 62q2 1 4 1q3 0 6 -5
q17 -54 93.5 -283t113.5 -346q2 -6 8 -6q5 0 7 6q14 43 86 278q18 70 90 299q3 8 8 8h2q6 -2 10 -8q45 -108 137.5 -324t104.5 -245q3 -5 7 -5h1q4 1 6 7q68 377 105 674q3 5 6 5q2 0 4 -1q37 -12 109.5 -31.5t109.5 -32.5q6 0 6 -8z" />
    <glyph glyph-name="X" unicode="X" horiz-adv-x="964" 
d="M924 1049q-21 -37 -168 -261q-6 -10 -63.5 -96t-86.5 -133v-6q25 -45 148 -244q28 -47 66 -107.5t62.5 -100.5t34.5 -56q2 -3 2 -5q0 -5 -8 -5q-110 -25 -231 -41q-1 -1 -3 -1h-1q-2 1 -2 3q-29 59 -96.5 179t-96.5 177q-4 8 -7 8t-5 -8q-35 -78 -90 -212t-78 -185
q-3 -5 -5 -5t-3 1q-101 24 -197 55q-7 0 -7 4q0 2 1 4q45 95 135 271t127 250v6l-37 61q-51 84 -146 235.5t-120 190.5q-1 2 -1 4q0 3 5 6q21 9 230 107q2 1 4 1q3 0 6 -5q61 -146 190 -385q4 -5 8 -5t7 5q36 67 105 209.5t101 203.5q0 2 4 4h2q2 0 3 -2q30 -14 111 -59
t98 -53q2 -2 3 -5v-2q0 -2 -1 -3z" />
    <glyph glyph-name="Y" unicode="Y" horiz-adv-x="1052" 
d="M1017 1040q-51 -69 -145 -209q-56 -79 -148 -224.5t-125 -194.5q-4 -6 -4 -19q-2 -74 -5 -219t-3 -203q0 -8 -8 -8q-174 10 -228 17q-7 0 -7 4q0 2 1 4q29 286 29 418q0 8 -6 20q-29 63 -118 217t-112 193q-6 10 -46 77.5t-58 102.5q-1 1 -1 3v2q1 3 3 3q35 16 117 49
t100 41q3 2 5 2q3 0 3 -4q25 -61 111 -234t121 -253q4 -6 7 -6t5 6q16 28 266 505q0 4 4 4q2 0 5 -1q116 -43 233 -80q5 -3 5 -8q0 -2 -1 -5z" />
    <glyph glyph-name="Z" unicode="Z" horiz-adv-x="1057" 
d="M790 15q0 -7 -6 -7q-558 -29 -698 -49q-2 -1 -5 -1q-5 0 -5 5q0 1 1 4q157 369 402 918q1 1 1 3q0 3 -1 4q-1 3 -6 3q-349 -35 -404 -43q-2 -1 -3 -1q-3 0 -4 2q-2 2 -2 4t1 4q3 33 12 97q2 14 17 126q0 6 6 6q28 -1 707 -19q6 0 6 -5q0 -2 -1 -5q-135 -314 -382 -853
q-1 -3 -1 -7q0 -5 4 -5q2 0 5 1q13 3 136 27q32 6 135 25q73 14 106 20q9 0 9 -4q0 -2 -1 -4q-19 -87 -29 -246z" />
    <glyph glyph-name="bracketleft" unicode="[" horiz-adv-x="758" 
 />
    <glyph glyph-name="backslash" unicode="\" horiz-adv-x="669" 
d="M44 1221q-1 2 -1 3q0 4 7 7q33 4 102.5 9t96.5 11q4 0 8 -4q33 -78 123 -342t181 -539.5t106 -316.5q0 -8 -4 -8q-58 -25 -103 -39q-1 -1 -3 -1t-5 5q-25 62 -117 290t-143 351q-197 481 -248 574z" />
    <glyph glyph-name="bracketright" unicode="]" horiz-adv-x="758" 
 />
    <glyph glyph-name="asciicircum" unicode="^" horiz-adv-x="839" 
d="M403 998q-113 -101 -153 -129q-3 -1 -6 -1q-6 1 -59 1q-63 1 -73 1q-45 1 -67 2l-4 1q0 1 1 1q11 9 160 127q147 118 152 121q2 1 4 1h1q4 0 44 -3q34 -3 49 -4q2 0 2 -1t1 -1l148 -116q145 -114 171 -132q0 -1 -5 -2q-20 -1 -66 -2q-10 0 -74 -1q-55 0 -61 -1q-3 0 -5 1
q-27 18 -160 137z" />
    <glyph glyph-name="underscore" unicode="_" horiz-adv-x="768" 
d="M719 -100v-62q0 -6 -8 -6l-648 2q-2 0 -8 6l-6 56q0 7 4 7q2 0 4 -1l166 -2q293 0 490 8q6 0 6 -8z" />
    <glyph glyph-name="grave" unicode="`" horiz-adv-x="499" 
d="M56 1279q22 19 66.5 57.5t66.5 58.5q1 1 4 1q2 0 6 -1q64 -42 182 -231q3 -3 3 -6q0 -2 -2 -4q-4 -7 -26 -34t-37 -50q-2 -3 -5 -3t-6 3q-8 8 -43.5 36t-58.5 47q-53 49 -149 113q-4 4 -4 7t3 6z" />
    <glyph glyph-name="a" unicode="a" horiz-adv-x="788" 
d="M696 506q0 -21 -7 -131q-6 -72 -20 -205t-18 -176q0 -6 -7 -6q-18 -4 -163 -21q-1 -1 -2 -1t-2 1q-3 2 -3 6v97q0 9 -5 9q-3 0 -7 -3q-84 -60 -153 -60q-103 0 -170.5 59.5t-67.5 160.5q0 104 85 170.5t194 66.5q73 0 124 -20q2 -1 4 -1q4 0 5 3q2 4 4 12q2 12 2 31
q0 49 -30 82.5t-77 33.5q-123 0 -241 -90q-4 -1 -6 -1q-5 0 -5 5q-32 107 -51 158q-1 1 -1 2q0 2 3 6q148 117 316 117q139 0 219 -84t80 -221zM479 283q0 24 -24 39q-21 12 -42 12h-6q-158 -6 -158 -103q0 -24 31 -37.5t65 -13.5q48 0 91 28t43 75z" />
    <glyph glyph-name="b" unicode="b" horiz-adv-x="907" 
d="M835 420q0 -168 -100 -282.5t-272 -114.5q-70 0 -146 32q-3 2 -5 2q-5 0 -5 -8v-102q0 -8 -8 -8q-135 26 -148 30l-6 6q-49 639 -49 1256q0 6 6 8q174 39 221 51q2 1 4 1t4 -1t2 -3t-1 -3q-7 -206 -7 -419v-95q0 -8 5 -8q2 0 6 2q47 33 143 33q156 0 256 -115t100 -262z
M616 387q0 59 -42 120.5t-103 61.5q-149 0 -149 -173q0 -11 1 -23q6 -88 34 -131t101 -43q72 0 115 59t43 129z" />
    <glyph glyph-name="c" unicode="c" horiz-adv-x="784" 
d="M747 96l-2 -6q-119 -119 -320 -119q-170 0 -262 133.5t-92 290.5q0 162 108.5 283t274.5 121q119 0 238 -49q4 -5 4 -9q-7 -28 -22 -88.5t-19 -87.5q-4 -6 -11 -6q-98 33 -143 33q-98 0 -150.5 -64.5t-52.5 -162.5q0 -86 54.5 -145.5t134.5 -59.5q96 0 198 94q3 2 6 2
q5 0 7 -6q6 -23 25.5 -79t23.5 -75z" />
    <glyph glyph-name="d" unicode="d" horiz-adv-x="878" 
d="M776 473q0 -86 -1.5 -181t-3.5 -213t-2 -181q0 -7 -8 -7q-24 5 -78.5 12t-79.5 9q-6 0 -6 6q-6 33 -10 127q0 7 -5 7q-2 0 -5 -1q-109 -47 -195 -47q-145 0 -228 98.5t-83 237.5q0 158 98.5 274.5t278.5 116.5q33 0 98 -8q2 -1 4 -1t3 1q2 1 2 3q0 1 -1 3q-2 27 -7 119
t-9 131q-6 47 -18.5 140t-18.5 141q0 8 8 8l240 -13q6 0 6 -6q21 -325 21 -776zM579 231q1 25 1 54q0 90 -9 223v4q-47 51 -113 51q-86 0 -127 -60.5t-41 -148.5q0 -166 160 -166q72 0 127 37z" />
    <glyph glyph-name="e" unicode="e" horiz-adv-x="811" 
d="M761 408q0 -7 -6 -7q-172 -18 -420 -39q-6 0 -8 -6v-5q0 -73 60 -112q47 -31 100 -31q16 0 33 3q71 10 126 49q2 1 4 1q4 0 7 -5q22 -57 63 -172q0 -6 -4 -8q-102 -64 -258 -64q-164 0 -256 109.5t-113 273.5q-3 29 -3 57q0 123 64 228q79 129 236 147q28 3 54 3
q134 0 209 -90q88 -109 108 -287q4 -29 4 -45zM558 526q-27 132 -118 132q-9 0 -19 -1q-49 -6 -81 -51q-31 -42 -31 -95v-7q0 -6 8 -6q116 6 235 20q6 0 6 8z" />
    <glyph glyph-name="f" unicode="f" horiz-adv-x="788" 
d="M759 1026q0 -6 -6 -12q-10 -8 -29.5 -21.5t-25.5 -19.5q-11 -10 -33.5 -25.5t-32.5 -25.5q-3 -3 -6 -3q-4 0 -6 7q-11 47 -17 71.5t-31.5 54t-64.5 29.5q-37 0 -69.5 -25.5t-38.5 -58.5q-7 -39 -11 -159v-154q0 -8 8 -8q164 12 213 14q7 0 7 -6q-2 -47 -9.5 -106.5
t-9.5 -77.5q0 -6 -6 -6q-88 0 -186 6q-9 0 -9 -8q-1 -10 -1 -26q0 -28 4 -75q8 -227 18 -373q1 0 1 -1q0 -2 -5 -7q-41 -12 -117 -30.5t-94 -22.5q-2 -1 -4 -1q-4 0 -4 7q0 27 1 121t2 177v63q0 71 -1 172q0 6 -8 6h-146q-8 0 -8 6q0 67 6 135q0 6 6 6q72 4 135 13q7 0 7 8
l2 266q2 139 82.5 232.5t218.5 93.5q88 0 160.5 -44t93.5 -126q14 -48 14 -66z" />
    <glyph glyph-name="g" unicode="g" horiz-adv-x="927" 
d="M855 991q-6 -127 -8 -182q0 -7 -5 -7q-2 0 -5 1q-2 2 -16.5 15t-26.5 22q-31 20 -70 20q-32 0 -63 -23.5t-37 -43.5q-2 -4 -2 -7q0 -5 4 -6q68 -37 111 -109.5t43 -154.5q0 -199 -244 -305q-41 -14 -113 -43q-78 -35 -82 -53v-3q0 -15 62 -24q65 -6 90 -12
q170 -29 262 -98.5t92 -225.5q0 -153 -124 -237t-281 -84q-142 0 -243 73.5t-114 212.5q-1 10 -1 20q0 123 116 210q7 4 7 7t-7 5q-59 23 -94 56.5t-35 66.5q0 92 240 158q8 4 8 7t-8 5q-103 27 -154 110.5t-51 161.5q0 127 87 209t218 82q14 0 51 -4q4 0 8 4q9 14 15 39
q30 72 97 129t138 57q92 0 127 -34q8 -9 8 -15zM606 508q0 61 -46.5 97t-115.5 36q-51 0 -98.5 -31.5t-47.5 -83.5q0 -61 47.5 -97t116.5 -36q53 0 98.5 32t45.5 83zM612 -250q0 139 -172 148h-10q-60 0 -108 -44q-52 -49 -52 -114q0 -59 59 -102q55 -41 113 -41h8
q65 2 113.5 45t48.5 108z" />
    <glyph glyph-name="h" unicode="h" horiz-adv-x="933" 
d="M839 555q3 -46 3 -90q0 -125 -23 -242q-12 -59 -74 -280q0 -6 -3 -6q-2 0 -5 2q-18 6 -82.5 22t-89.5 25q-4 0 -4 8q70 266 70 407q0 224 -109 224q-51 0 -110.5 -58.5t-63.5 -111.5q-12 -142 -25 -527q0 -6 -6 -6q-22 0 -62 1t-61 1q-6 0 -20.5 1t-22.5 1q-6 0 -6 6
q-2 215 -9 437.5t-21.5 562.5t-18.5 436q0 4 4 8q33 10 106.5 28.5t106.5 29.5q8 0 8 -9q0 -65 4 -544q4 -154 4 -166q0 -10 4 -10q3 0 9 6q102 133 239 133q115 0 184.5 -83t73.5 -206z" />
    <glyph glyph-name="i" unicode="i" horiz-adv-x="483" 
d="M360 1067q0 -59 -44 -101t-103 -42q-51 0 -89 47t-38 98q0 53 41 94t94 41q51 0 95 -43t44 -94zM381 788q-12 -350 -27 -794q0 -6 -6 -6q-31 -2 -98.5 -5t-89.5 -6q-8 0 -8 7q-3 26 -3 77l-2 45q0 48 -2 124.5t-5 165.5t-5 193.5t-4 188.5q0 8 8 8q43 2 129 2
q19 3 52.5 5t52.5 2q2 1 4 1q4 0 4 -8z" />
    <glyph glyph-name="j" unicode="j" horiz-adv-x="520" 
d="M380 1112q0 -63 -53.5 -108.5t-116.5 -45.5q-54 0 -96 42t-42 96q0 61 50.5 110t111.5 49q57 0 101.5 -44t44.5 -99zM427 -25v-16q0 -171 -80 -270q-37 -45 -101.5 -74t-126.5 -29q-176 4 -266 107q-4 4 -4 8q0 6 6 14q19 19 51 60q13 14 48 63q4 4 6 4t4 -2
q14 -10 35.5 -30.5t34 -29.5t35.5 -15q17 -5 38 -5h14q46 4 71.5 56.5t25.5 109.5v97l-62 731q0 8 6 8q142 39 228 61q8 0 8 -6q6 -182 8 -231q0 -25 3 -93.5t7 -205.5t11 -312z" />
    <glyph glyph-name="k" unicode="k" horiz-adv-x="927" 
d="M895 135v-8q-23 -25 -77 -79t-81 -87q-3 -3 -5 -3q-4 0 -7 5q-58 82 -265 451q-2 6 -6 6q-2 0 -6 -4q-82 -86 -100 -117q-6 -8 -6 -18v-36q0 -26 1 -54.5t2 -56.5t1 -46v-18q0 -86 2 -103q0 -8 -8 -8q-50 -2 -109 -5t-80 -3q-8 0 -8 8q-6 172 -17.5 511t-17.5 507
q-2 35 -4 125t-2 125q0 4 4 8q31 12 116 32.5t99 26.5q3 1 5 1q5 0 5 -7q2 -49 2 -292q0 -244 2 -435q0 -9 5 -9q3 0 8 3q55 55 108.5 134t76 120t79.5 152q3 5 6 5q2 0 4 -1q62 -29 199 -99q4 -1 4 -4t-2 -6q-39 -57 -115 -145q-18 -23 -58 -69t-59 -69q-2 -2 -2 -8
q41 -61 163 -230t143 -200z" />
    <glyph glyph-name="l" unicode="l" horiz-adv-x="460" 
d="M352 1286q-18 -865 -18 -1174q0 -59 1 -98q0 -6 -8 -6h-180q-6 0 -6 6q-2 43 -4 91.5t-4 107.5t-4 92q-27 907 -27 922q0 12 14 16q25 6 108 23.5t118 25.5q3 1 5 1q5 0 5 -7z" />
    <glyph glyph-name="m" unicode="m" horiz-adv-x="1236" 
d="M1134 27q0 -7 -6 -9q-102 -24 -178 -49q-8 0 -8 8q0 60 1 208v88q0 79 -1 118q-9 187 -84 187q-41 0 -82 -37t-43 -72q-2 -10 -2 -90q0 -49 4 -181t4 -194q0 -6 -8 -6q-19 0 -52.5 2t-50.5 2h-80q-8 0 -8 8v99q0 49 3 173q2 74 2 128q0 36 -1 63q0 41 -17.5 82t-51.5 41
q-43 0 -92.5 -48t-69.5 -97q-4 -13 -4 -19q10 -260 14 -311q0 -6 2 -43t4 -68q0 -4 -8 -8q-57 0 -172 -8q-6 0 -6 6q-10 139 -21.5 432t-15.5 379q0 8 6 8q27 6 88.5 21.5t91.5 23.5q9 0 9 -6q2 -31 3 -92t1 -80q2 -8 6 -8q3 0 6 4q129 125 219 125q43 0 77 -24.5t48 -50
t37 -75.5q2 -6 6 -6q2 0 6 4q105 131 189 131q49 0 93 -27.5t68 -70.5q50 -86 60 -213q6 -67 9 -140t3 -168t2 -140z" />
    <glyph glyph-name="n" unicode="n" horiz-adv-x="868" 
d="M766 311q0 -186 -27 -346q0 -6 -6 -6q-49 -4 -160 -8q-8 0 -8 8q0 18 7 89t7 104q0 2 2 37.5t2 53.5q0 17 1 58v20q0 27 -2 47q-3 25 -7 62t-13 59.5t-21.5 45t-31 34t-42.5 11.5q-39 0 -76 -32t-51 -69q-7 -16 -15 -84q-6 -63 -19.5 -190t-21.5 -191q0 -6 -6 -6
q-55 -2 -168 -2q-8 0 -8 8q10 142 12 156q29 367 29 717q6 6 8 6q41 4 207 14q6 0 6 -8q0 -47 -6 -113q-1 -2 -1 -3q0 -2 2 -3t3 -1q2 0 4 1q64 25 115 25q67 0 135 -42t94 -104q56 -127 56 -348z" />
    <glyph glyph-name="o" unicode="o" horiz-adv-x="856" 
d="M784 389q0 -96 -34 -185t-120 -158t-209 -69q-90 0 -161.5 45.5t-110.5 116t-58.5 143t-19.5 140.5q0 92 38 188.5t124 171t200 74.5q80 0 142.5 -31.5t100.5 -82t63.5 -115t35 -123t9.5 -115.5zM581 412q0 82 -37 159.5t-119 77.5q-55 0 -89 -44t-43 -89t-9 -90
q0 -39 1 -63.5t10 -66.5t24.5 -67.5t48.5 -46t80 -20.5q53 0 85 51t40 101.5t8 97.5z" />
    <glyph glyph-name="p" unicode="p" horiz-adv-x="948" 
d="M880 391q0 -174 -94 -289.5t-266 -115.5q-113 0 -185 39q-2 1 -4 1q-6 0 -6 -10v-25q0 -91 -12 -246q-14 -177 -27 -255q0 -6 -8 -6q-31 6 -85 20.5t-81 20.5q-6 0 -6 6q15 205 15 483q0 62 -1 127q0 658 4 824q0 6 9 6q147 -4 211 -4q8 0 8 -9q-10 -155 -13 -223
q0 -7 6 -7q2 0 5 1q82 45 190 45q158 0 249 -113.5t91 -269.5zM665 377q0 80 -43 138t-117 58q-116 0 -161 -81l-5 -19q-8 -170 -8 -184q2 -47 57.5 -76t110.5 -29q78 0 122 57.5t44 135.5z" />
    <glyph glyph-name="q" unicode="q" horiz-adv-x="878" 
d="M907 -369q-13 -77 -29 -157q-2 -11 -25 -11q-159 0 -240 100.5t-81 268.5q0 10 2 81t2 101q0 9 -8 9q-49 -7 -86 -7q-156 0 -263.5 112t-107.5 286q0 366 305 417q20 4 42 4q71 0 157 -42q3 -3 6 -3q4 0 6 7q8 82 14 127q0 6 7 6q16 0 51 2t77 5t54 3q8 0 8 -8
q-29 -242 -47 -555q-18 -276 -18 -516v-68q0 -61 32.5 -111.5t83.5 -50.5q27 0 49 9q1 1 3 1t4 -2q2 -4 2 -8zM569 553q0 16 -11 33q-34 43 -112 43t-122 -66.5t-44 -148.5q0 -88 46 -160t122 -72q39 0 78 15q14 4 18 9t6 17q19 277 19 330z" />
    <glyph glyph-name="r" unicode="r" horiz-adv-x="679" 
d="M655 784q-6 -41 -23.5 -116.5t-21.5 -96.5q0 -4 -4 -6q-1 -1 -3 -1t-3 3q-80 51 -154 51q-80 0 -123 -83q-2 -5 -2 -21q4 -53 15.5 -139t26.5 -191.5t22 -152.5q1 -2 1 -4q0 -4 -8 -4q-38 -7 -109 -18t-110 -19q-8 0 -8 8q-49 784 -49 791q0 6 6 8q19 6 135 28q9 0 9 -6
l14 -82q3 -6 7 -6q2 0 5 2q39 41 101.5 66.5t119.5 25.5q74 0 152 -28q4 0 4 -9z" />
    <glyph glyph-name="s" unicode="s" horiz-adv-x="731" 
d="M667 203q0 -117 -110.5 -180.5t-241.5 -63.5q-150 0 -244 70q-3 3 -3 5t1 3q10 29 30.5 83t30.5 81q2 4 5 4t6 -2q129 -70 192 -70q41 0 78 20.5t37 63.5q0 37 -33 61.5t-98.5 45t-69.5 22.5q-67 31 -104 94.5t-37 141.5q0 118 91 192t216 74q113 0 217 -66q2 -2 2 -10
q-12 -27 -38.5 -79t-41.5 -79q-4 -4 -6 -4t-4 2q-78 41 -129 41q-39 0 -74.5 -23.5t-35.5 -58.5q0 -59 40 -82q9 -4 103 -49q53 -24 81.5 -38.5t66.5 -43t55.5 -67.5t17.5 -88z" />
    <glyph glyph-name="t" unicode="t" horiz-adv-x="706" 
d="M657 580q0 -7 -6 -7q-31 -6 -87 -6t-83 -4q-10 -2 -10 -20q6 -103 16 -309.5t15 -268.5q0 -8 -7 -8q-118 -16 -194 -23h-2q-10 0 -10 21q0 8 -1 36.5t-1 31.5q0 57 -19 505q0 7 -8 7q-39 -3 -107.5 -11t-83.5 -10q-2 -1 -4 -1q-4 0 -4 7q-2 29 -5 89.5t-5 88.5q0 9 6 9
q33 6 96.5 13t96.5 13q6 0 6 8q-4 80 -11.5 205t-11.5 197q0 6 4 6q133 45 240 70q2 1 4 1q4 0 4 -8q-14 -213 -14 -448q0 -8 6 -8q31 0 170 10q2 1 4 1q4 0 4 -7q0 -4 1 -47t1 -76v-57z" />
    <glyph glyph-name="u" unicode="u" horiz-adv-x="821" 
d="M742 481q0 -86 -6 -152.5t-27.5 -144.5t-56 -128t-98 -84.5t-149.5 -34.5q-95 0 -160.5 51t-97 143t-44 180t-16.5 203q-2 68 -2 122q0 55 2 97q0 6 6 6q156 25 223 41q3 1 5 1q6 0 6 -9q-21 -149 -21 -317q0 -316 115 -316q119 0 119 342q0 84 -27 305q0 7 6 7
q37 6 107.5 20t107.5 23q2 1 4 1q4 0 4 -8l3 -174q0 -174 -3 -174z" />
    <glyph glyph-name="v" unicode="v" horiz-adv-x="884" 
d="M859 745q-45 -83 -84.5 -162t-81.5 -170t-67 -145.5t-75 -168t-70 -160.5q-7 -18 -16 -18t-19 18q-281 538 -414 774q-1 2 -1 4q0 3 5 6q70 25 197 88q2 1 4 1q3 0 6 -3q53 -107 205 -477q3 -5 7 -5q3 0 7 5q25 59 99.5 266t105.5 272q2 5 5 5q2 0 5 -3q37 -28 96.5 -64
t83.5 -54q4 -2 4 -5q0 -2 -2 -4z" />
    <glyph glyph-name="w" unicode="w" horiz-adv-x="1087" 
d="M1064 774q-114 -342 -145 -440q-14 -47 -57 -163t-62 -179q-6 -20 -15 -20q-7 0 -16 16q-28 61 -89.5 206.5t-92.5 211.5q-3 5 -6 5q-4 0 -8 -5q-23 -54 -88.5 -215.5t-100.5 -237.5q-5 -8 -10 -8t-10 8q-2 4 -6 13t-6 14q-23 51 -154 355t-166 370q-2 3 -2 6t4 4
q57 30 187 119q2 1 4 1q5 0 6 -6q18 -43 68.5 -199.5t76.5 -226.5q2 -6 6 -6q2 0 6 4q64 160 162 484q2 10 13 11h2q8 0 12 -7q29 -53 94 -217q10 -29 37 -100.5t41 -108.5q2 -6 6 -6t6 6q25 78 60.5 207t48.5 172q0 6 8 6q31 -10 95.5 -33.5t86.5 -32.5q5 -3 5 -5t-1 -3z
" />
    <glyph glyph-name="x" unicode="x" horiz-adv-x="847" 
d="M808 727q4 -4 4 -8q0 -5 -4 -10q-16 -23 -68.5 -88.5t-108.5 -133t-62 -73.5q-2 -2 -2 -4t2 -4q14 -17 67 -83.5t90 -107.5t78 -76q2 -2 2 -4q0 -3 -2 -6q-6 -8 -137 -172q-3 -1 -6 -1t-6 1q-45 49 -101 119q-20 26 -62 78.5t-57 68.5q-2 2 -5 2t-5 -2
q-14 -16 -118.5 -128.5t-155.5 -172.5q-3 -3 -5 -3q-3 0 -5 5q-56 96 -78 139q-4 7 -13.5 19t-13.5 21q-1 2 -1 5q0 6 5 11q76 71 277 287q2 2 2 8q-17 24 -97.5 138t-123.5 173q-1 2 -1 4q0 4 3 6q67 66 149 148q4 4 6 4q4 0 6 -6q19 -33 52.5 -94.5t64.5 -117t66 -108.5
q2 -4 5 -5h1q2 0 4 3q37 41 72.5 89t78.5 111.5t66 94.5q2 4 5 5h1q2 0 4 -3q31 -37 58 -61q45 -45 69 -68z" />
    <glyph glyph-name="y" unicode="y" horiz-adv-x="954" 
d="M862 72q0 -228 -109.5 -359t-328.5 -131q-174 0 -318 137q-2 4 -2 6q0 3 2 5q62 73 117 168q3 4 6 4t6 -4q8 -11 25 -35q53 -78 168 -78q92 0 159.5 68.5t67.5 160.5q0 33 -4 90q0 11 -4 11q-2 0 -6 -4q-72 -62 -122 -84.5t-130 -22.5q-131 0 -210 93t-79 225
q0 104 43 458q0 6 8 6h29q113 0 194 5q9 0 9 -9q-4 -26 -14.5 -75.5t-14.5 -69.5q-35 -209 -35 -260q0 -172 143 -172q37 0 88.5 25.5t75.5 70.5q2 10 2 16q0 19 -3 61t-3 44q-4 31 -17 176t-24 219q0 4 4 8q35 9 111 26t104 26q9 0 9 -7q53 -450 53 -798z" />
    <glyph glyph-name="z" unicode="z" horiz-adv-x="854" 
d="M799 774q-8 -20 -27 -47q-27 -37 -113 -156.5t-141 -200.5t-104 -163v-3q0 -5 6 -7q182 26 223 26q84 0 135 -6q7 -3 7 -7q0 -1 -1 -3q-12 -37 -23 -104.5t-20 -96.5q-4 -4 -8 -4q-45 6 -233 6q-76 0 -138.5 -6t-157.5 -20.5t-149 -20.5q-9 0 -9 6q0 2 1 4
q55 103 120.5 201t174.5 246.5t137 189.5q3 5 3 8q0 5 -9 5q-51 -3 -131 -11q-137 -16 -217 -22q-8 0 -8 6l-31 227v3q0 5 8 5q62 -6 339.5 -18t354.5 -20q13 0 13 -8q0 -4 -2 -9z" />
    <glyph glyph-name="braceleft" unicode="{" horiz-adv-x="1014" 
 />
    <glyph glyph-name="bar" unicode="|" horiz-adv-x="1014" 
 />
    <glyph glyph-name="braceright" unicode="}" horiz-adv-x="1014" 
 />
    <glyph glyph-name="asciitilde" unicode="~" horiz-adv-x="854" 
d="M747 847q3 -30 3 -31q-89 -52 -157 -68q-33 -7 -62 -7q-55 0 -101 25q-15 10 -32 19q-66 32 -127 32q-29 0 -57 -7q-15 -3 -28 -9q-37 -19 -55 -37l-1 -1q-4 0 -11 18q-6 19 -14 50q-13 58 -13 74q0 5 1 6q28 27 40 31q12 7 28 13q55 21 108 21q36 0 70 -9q18 -4 35 -11
q18 -5 42 -18q32 -18 38 -21q33 -14 71 -14q31 0 65 9q43 12 131 55q2 0 6 -9l7 -19q4 -10 7 -34q3 -25 3 -24q1 -3 3 -34z" />
    <glyph glyph-name="exclamdown" unicode="&#xa1;" horiz-adv-x="579" 
d="M52 86q158 521 229 869q0 5 4 5q2 0 5 -1q10 0 38.5 -5t43.5 -5q2 0 19 1t26 1q8 0 8 -6q-21 -185 -51.5 -541t-34.5 -402q-3 -6 -8 -6h-2q-156 52 -271 80q-6 3 -6 8v2zM240 1221q0 55 47.5 90t104.5 35q51 0 93 -34t42 -87q0 -63 -42 -102t-103 -39q-60 0 -101 39
t-41 98z" />
    <glyph glyph-name="cent" unicode="&#xa2;" horiz-adv-x="1139" 
 />
    <glyph glyph-name="sterling" unicode="&#xa3;" horiz-adv-x="780" 
d="M764 104q1 -3 4 -34q2 -22 2 -29v-2q-128 -75 -223 -75q-55 0 -99 25q-16 10 -32 18q-67 33 -129 33q-29 0 -57 -7q-14 -4 -28 -9q-19 -10 -37 -23q-15 -13 -18 -14l-1 -1h-3q-4 0 -4 6q0 1 -2 42v103q0 29 9 102q10 92 37 207q1 6 5 24q4 14 6 22q-27 3 -44 3
q-9 0 -15 -1q-46 1 -50 1q-49 0 -73 4q2 42 5 62q4 29 14 59q2 7 7 7q31 -2 62 -2t61 2q28 5 47 5v6q0 42 -38 169q-24 78 -24 133q0 32 8 56q0 2 14 33q6 13 18 31q10 14 22 28q71 83 193 83q77 0 141 -39t83 -111q12 -43 12 -59q0 -5 -5 -10q-9 -7 -26 -19t-23 -17
q-9 -9 -29 -23q-6 -2 -17 -13q-10 -10 -19 -12q-5 13 -13 48q-7 29 -15 45q-11 18 -24 31q-20 20 -49 20q-16 0 -34 -6q-17 -8 -29 -19q-14 -12 -20 -29l-7 -28q2 -38 10 -85q4 -20 9 -42q12 -56 27 -157q85 14 152 14q5 -15 5 -41q0 -20 -3 -47q-7 -54 -11 -58
q0 -15 -12 -26q-86 15 -116 15q-16 0 -16 -4q-5 -44 -20 -130q-16 -88 -20 -129q-3 -21 -3 -43q14 -2 27 -5q18 -5 36 -12q18 -5 42 -18q33 -19 38 -21q33 -15 71 -15q32 0 67 10q42 11 132 55q1 0 12 -28q4 -10 7 -34q3 -26 3 -25z" />
    <glyph glyph-name="currency" unicode="&#xa4;" horiz-adv-x="1151" 
 />
    <glyph glyph-name="yen" unicode="&#xa5;" horiz-adv-x="1151" 
 />
    <glyph glyph-name="brokenbar" unicode="&#xa6;" horiz-adv-x="1151" 
 />
    <glyph glyph-name="section" unicode="&#xa7;" horiz-adv-x="1151" 
 />
    <glyph glyph-name="dieresis" unicode="&#xa8;" horiz-adv-x="657" 
 />
    <glyph glyph-name="copyright" unicode="&#xa9;" horiz-adv-x="1075" 
d="M941 544q0 -112 -39.5 -205t-130 -156t-217.5 -63q-172 0 -275.5 113.5t-103.5 283.5q0 183 107 321.5t285 138.5q170 0 272 -129t102 -304zM826 527q0 53 -11.5 106.5t-34.5 109.5t-71 90.5t-111 34.5q-158 0 -233 -101.5t-75 -242.5q0 -316 259 -316q104 0 168.5 50.5
t86.5 118t22 150.5zM705 382q0 -1 -0.5 -2t-0.5 -2q-59 -56 -160 -56q-87 0 -134.5 64t-47.5 154q0 83 55.5 145.5t141.5 62.5q56 0 115 -22q3 -1 3 -3t-1 -3q-3 -14 -9 -39t-8 -34q-2 -3 -4 -3h-1q-40 14 -70 14q-59 0 -90 -39t-31 -96q0 -51 32.5 -86.5t81.5 -35.5
q44 0 100 46q2 2 3 2q2 0 3 -3q3 -7 11.5 -31t10.5 -33z" />
    <glyph glyph-name="ordfeminine" unicode="&#xaa;" horiz-adv-x="657" 
 />
    <glyph glyph-name="guillemotleft" unicode="&#xab;" horiz-adv-x="657" 
 />
    <glyph glyph-name="logicalnot" unicode="&#xac;" horiz-adv-x="968" 
 />
    <glyph glyph-name="registered" unicode="&#xae;" horiz-adv-x="1075" 
d="M941 544q0 -112 -39.5 -205t-130 -156t-217.5 -63q-172 0 -275.5 113.5t-103.5 283.5q0 183 107 321.5t285 138.5q170 0 272 -129t102 -304zM826 527q0 53 -11.5 106.5t-34.5 109.5t-71 90.5t-111 34.5q-158 0 -233 -101.5t-75 -242.5q0 -316 259 -316q104 0 168.5 50.5
t86.5 118t22 150.5zM720 356v-2q0 -2 -2 -2q-7 -3 -69 -26h-4q-7 14 -26 49t-34 64t-26 53q-1 3 -2 3l-1 -1q-22 -6 -43 -7q-2 0 -2 -3q-1 -31 -1 -61v-30q0 -9 0.5 -28t0.5 -29q0 -2 -2 -2h-69q-2 0 -2 2q0 47 2 94q4 94 6 249q0 3 -3 3q-25 -2 -35 -2q-2 0 -2 2
q0 5 -0.5 14t-0.5 14v25q0 3 3 3q50 6 93 6h21q82 -3 117 -27q21 -14 33.5 -38t12.5 -50q0 -73 -70 -112q-2 -1 -2 -2t1 -2q17 -28 55 -82t51 -75zM608 621q0 26 -19.5 45.5t-44.5 20.5q-22 0 -27 -1q-3 0 -3 -2q0 -24 -1.5 -66.5t-1.5 -66.5q0 -1 4 -3h9q31 0 57.5 21
t26.5 52z" />
    <glyph glyph-name="macron" unicode="&#xaf;" horiz-adv-x="1614" 
 />
    <glyph glyph-name="degree" unicode="&#xb0;" horiz-adv-x="1614" 
 />
    <glyph glyph-name="plusminus" unicode="&#xb1;" horiz-adv-x="874" 
d="M806 642q-32 -2 -274 -8q-7 0 -7 -7l-4 -331v-3q0 -5 -6 -5h-168q-7 0 -9 8q-2 63 -10 327q0 7 -9 7l-244 -5h-2q-4 0 -4 7q0 36 -3 108q0 21 -6 85q2 4 9 8l244 -8q4 2 6 8q-4 124 -13 309q0 21 13 23q77 13 211 40q4 0 8 -6q-5 -189 -11 -372q0 -6 7 -6l263 -9
q9 0 9 -6q2 -37 8 -157q0 -7 -8 -7zM740 225q-4 -29 -11 -88t-11 -88q0 -4 -13 -8q-136 -15 -509 -29q-15 0 -15 6q-3 8 -20.5 74.5t-28.5 93.5q0 8 15 8q21 0 102 5.5t136 7.5q131 4 337 26q18 0 18 -8z" />
    <glyph glyph-name="uni00B2" unicode="&#xb2;" horiz-adv-x="519" 
d="M453 1285q0 -67 -46 -122q-22 -28 -82 -64q-60 -38 -68 -51q-3 -2 -4 -6q-1 -2 -1 -3q0 -2 3 -3q60 -7 99 -15q31 -5 77 -20q6 -4 6 -7q0 -1 -1 -2q-6 -13 -18 -38.5t-19 -39.5h-1l-1 -1q-1 0 -2 1q-112 49 -266 58q-2 0 -2 3v10q0 26 19 61q9 16 25.5 33t27 25.5
t38 26.5t31.5 21q41 29 63 56t22 64q0 32 -20.5 53.5t-52.5 21.5q-39 0 -67.5 -31.5t-41.5 -73.5q-1 -3 -2 -3t-1 1q-25 5 -73 16q-3 0 -3 4q7 30 17 53q21 56 68 85t105 29q66 0 118.5 -38.5t52.5 -103.5z" />
    <glyph glyph-name="uni00B3" unicode="&#xb3;" horiz-adv-x="519" 
d="M427 1409q0 -4 -4 -10t-12 -15l-9 -11q-108 -139 -135 -175v-1q0 -2 2 -3q94 -35 94 -124q0 -63 -44 -99t-110 -36q-23 0 -62.5 13t-53.5 27q-1 1 -1 4q7 16 25 71q1 3 2 3t2 -1q44 -29 85 -29q27 0 43.5 14.5t16.5 40.5q0 40 -29.5 63.5t-71.5 25.5h-10q-7 0 -7 3
q0 2 2 4q20 28 57 80t54 74q2 2 2 3q0 2 -5 2q-131 -12 -135 -12q-3 0 -3 3q-3 11 -9 40.5t-11 45.5v1q0 3 3 3q28 0 79.5 0.5t93.5 0.5t79 1q10 0 31 1t31 1t10 -9z" />
    <glyph glyph-name="acute" unicode="&#xb4;" horiz-adv-x="543" 
d="M451 1483q2 -2 2 -5q0 -4 -4 -8q-95 -64 -149 -113q-23 -19 -58 -47t-44 -36q-2 -3 -5 -3t-6 3q-15 23 -37 50t-26 34q-2 2 -2 4t4 6q118 189 181 231q4 1 7 1t4 -1q22 -20 66.5 -58.5t66.5 -57.5z" />
    <glyph glyph-name="mu" unicode="&#xb5;" horiz-adv-x="657" 
 />
    <glyph glyph-name="paragraph" unicode="&#xb6;" horiz-adv-x="657" 
 />
    <glyph glyph-name="periodcentered" unicode="&#xb7;" horiz-adv-x="657" 
 />
    <glyph glyph-name="periodcentered" unicode="&#x2219;" horiz-adv-x="657" 
 />
    <glyph glyph-name="cedilla" unicode="&#xb8;" horiz-adv-x="1518" 
 />
    <glyph glyph-name="uni00B9" unicode="&#xb9;" horiz-adv-x="1554" 
 />
    <glyph glyph-name="ordmasculine" unicode="&#xba;" horiz-adv-x="1614" 
 />
    <glyph glyph-name="guillemotright" unicode="&#xbb;" horiz-adv-x="1614" 
 />
    <glyph glyph-name="onequarter" unicode="&#xbc;" horiz-adv-x="1708" 
 />
    <glyph glyph-name="onehalf" unicode="&#xbd;" horiz-adv-x="1964" 
 />
    <glyph glyph-name="threequarters" unicode="&#xbe;" horiz-adv-x="1708" 
 />
    <glyph glyph-name="questiondown" unicode="&#xbf;" horiz-adv-x="913" 
d="M94 340q0 129 75 223t199 139q17 7 63 19t75.5 23.5t64.5 30t52.5 48t17.5 66.5q0 20 -12 65q0 4 6 9l123 36q4 0 10 -8q16 -26 16 -86q0 -102 -57 -174q-21 -26 -43.5 -47.5t-40 -35t-46 -28t-44 -20.5t-54 -20.5t-57.5 -20.5q-74 -29 -116 -66.5t-42 -107.5
q0 -66 42 -104.5t106 -38.5q82 0 157.5 47t127.5 121q3 3 6 3t6 -3q51 -72 108 -160v-8q-63 -103 -164.5 -164.5t-218.5 -61.5q-143 0 -251.5 92.5t-108.5 231.5zM551 1182q0 41 25.5 70.5t66.5 29.5q43 0 79 -31.5t36 -74.5q0 -41 -35 -70t-76 -29t-68.5 32t-27.5 73z" />
    <glyph glyph-name="Agrave" unicode="&#xc0;" horiz-adv-x="1030" 
d="M1003 14q0 -6 -6 -10q-82 -20 -242 -41q-8 0 -8 4q-4 17 -15.5 65t-15.5 64q-22 101 -51 199q0 6 -8 6q-228 -16 -279 -22q-4 -3 -4 -5q-33 -67 -108 -297q-5 -4 -11 -4q-18 4 -97 21.5t-122 28.5q-2 0 -4 3q-1 2 -1 3q0 2 1 4q90 200 273.5 582t273.5 583q4 7 7 7t5 -7
q123 -311 227 -633q21 -61 84.5 -253.5t100.5 -297.5zM630 467q-12 47 -34.5 124t-33.5 111q-2 7 -7 7t-7 -7q-10 -26 -46 -109t-56 -134q-1 -2 -1 -4q0 -1 1 -3t3 -2q1 0 3 1q121 6 172 8q7 0 7 4q0 2 -1 4zM332 1442q22 19 66.5 57.5t66.5 58.5q2 1 4 1q3 0 7 -1
q63 -42 181 -231q4 -4 4 -6t-2 -4q-4 -7 -26 -34t-37 -50q-3 -3 -6 -3q-2 0 -5 3q-9 8 -44 36t-58 47q-54 49 -149 113q-4 4 -4 8q0 3 2 5z" />
    <glyph glyph-name="Aacute" unicode="&#xc1;" horiz-adv-x="1030" 
d="M1003 14q0 -6 -6 -10q-82 -20 -242 -41q-8 0 -8 4q-4 17 -15.5 65t-15.5 64q-22 101 -51 199q0 6 -8 6q-228 -16 -279 -22q-4 -3 -4 -5q-33 -67 -108 -297q-5 -4 -11 -4q-18 4 -97 21.5t-122 28.5q-2 0 -4 3q-1 2 -1 3q0 2 1 4q90 200 273.5 582t273.5 583q4 7 7 7t5 -7
q123 -311 227 -633q21 -61 84.5 -253.5t100.5 -297.5zM630 467q-12 47 -34.5 124t-33.5 111q-2 7 -7 7t-7 -7q-10 -26 -46 -109t-56 -134q-1 -2 -1 -4q0 -1 1 -3t3 -2q1 0 3 1q121 6 172 8q7 0 7 4q0 2 -1 4zM844 1450q3 -3 3 -6t-4 -7q-96 -64 -150 -113q-22 -19 -57.5 -47
t-43.5 -36q-3 -3 -6 -3t-6 3q-15 23 -36.5 50t-25.5 34q-2 2 -2 4q0 3 3 6q118 189 182 231q4 1 6 1q3 0 4 -1q22 -20 66.5 -58.5t66.5 -57.5z" />
    <glyph glyph-name="Acircumflex" unicode="&#xc2;" horiz-adv-x="1030" 
d="M1003 14q0 -6 -6 -10q-82 -20 -242 -41q-8 0 -8 4q-4 17 -15.5 65t-15.5 64q-22 101 -51 199q0 6 -8 6q-228 -16 -279 -22q-4 -3 -4 -5q-33 -67 -108 -297q-5 -4 -11 -4q-18 4 -97 21.5t-122 28.5q-2 0 -4 3q-1 2 -1 3q0 2 1 4q90 200 273.5 582t273.5 583q4 7 7 7t5 -7
q123 -311 227 -633q21 -61 84.5 -253.5t100.5 -297.5zM630 467q-12 47 -34.5 124t-33.5 111q-2 7 -7 7t-7 -7q-10 -26 -46 -109t-56 -134q-1 -2 -1 -4q0 -1 1 -3t3 -2q1 0 3 1q121 6 172 8q7 0 7 4q0 2 -1 4zM589 1326q-113 -101 -153 -129q-3 -1 -6 -1q-6 1 -59 1
q-63 1 -73 1q-45 1 -67 2l-4 1q0 1 1 1q11 9 160 127q147 118 152 121q2 1 4 1h1q4 0 44 -3q34 -3 49 -4q2 0 2 -1t1 -1l148 -116q145 -114 171 -132q0 -1 -5 -2q-20 -1 -66 -2q-10 0 -74 -1q-55 0 -61 -1q-3 0 -5 1q-27 18 -160 137z" />
    <glyph glyph-name="Atilde" unicode="&#xc3;" horiz-adv-x="1030" 
d="M1003 14q0 -6 -6 -10q-82 -20 -242 -41q-8 0 -8 4q-4 17 -15.5 65t-15.5 64q-22 101 -51 199q0 6 -8 6q-228 -16 -279 -22q-4 -3 -4 -5q-33 -67 -108 -297q-5 -4 -11 -4q-18 4 -97 21.5t-122 28.5q-2 0 -4 3q-1 2 -1 3q0 2 1 4q90 200 273.5 582t273.5 583q4 7 7 7t5 -7
q123 -311 227 -633q21 -61 84.5 -253.5t100.5 -297.5zM630 467q-12 47 -34.5 124t-33.5 111q-2 7 -7 7t-7 -7q-10 -26 -46 -109t-56 -134q-1 -2 -1 -4q0 -1 1 -3t3 -2q1 0 3 1q121 6 172 8q7 0 7 4q0 2 -1 4zM912 1345q3 -30 3 -31q-89 -52 -157 -68q-33 -7 -62 -7
q-55 0 -101 25q-15 10 -32 19q-66 32 -127 32q-29 0 -57 -7q-15 -3 -28 -9q-37 -19 -55 -37l-1 -1q-4 0 -11 18q-6 19 -14 50q-13 58 -13 74q0 5 1 6q28 27 40 31q12 7 28 13q55 21 108 21q36 0 70 -9q18 -4 35 -11q18 -5 42 -18q32 -18 38 -21q33 -14 71 -14q31 0 65 9
q43 12 131 55q2 0 6 -9l7 -19q4 -10 7 -34q3 -25 3 -24q1 -3 3 -34z" />
    <glyph glyph-name="Adieresis" unicode="&#xc4;" horiz-adv-x="1030" 
d="M1003 14q0 -6 -6 -10q-82 -20 -242 -41q-8 0 -8 4q-4 17 -15.5 65t-15.5 64q-22 101 -51 199q0 6 -8 6q-228 -16 -279 -22q-4 -3 -4 -5q-33 -67 -108 -297q-5 -4 -11 -4q-18 4 -97 21.5t-122 28.5q-2 0 -4 3q-1 2 -1 3q0 2 1 4q90 200 273.5 582t273.5 583q4 7 7 7t5 -7
q123 -311 227 -633q21 -61 84.5 -253.5t100.5 -297.5zM630 467q-12 47 -34.5 124t-33.5 111q-2 7 -7 7t-7 -7q-10 -26 -46 -109t-56 -134q-1 -2 -1 -4q0 -1 1 -3t3 -2q1 0 3 1q121 6 172 8q7 0 7 4q0 2 -1 4zM420 1450q48 0 77 -35t29 -84q0 -43 -33 -75t-76 -32
q-49 0 -85 34t-36 82q0 45 38.5 77.5t85.5 32.5zM766 1448q45 0 73 -38t28 -85q0 -41 -27 -75t-71 -34q-51 0 -82.5 34t-31.5 83t31.5 82t79.5 33z" />
    <glyph glyph-name="Aring" unicode="&#xc5;" horiz-adv-x="1540" 
 />
    <glyph glyph-name="AE" unicode="&#xc6;" horiz-adv-x="2118" 
 />
    <glyph glyph-name="Ccedilla" unicode="&#xc7;" horiz-adv-x="958" 
d="M890 1095q10 -7 10 -17q-47 -200 -51 -227q-3 -7 -7 -7q-1 0 -3 1q-63 30 -133 30q-157 0 -271 -96t-114 -250q0 -320 350 -320q60 0 105 14q2 1 3 1q4 0 7 -7q13 -136 23 -186q0 -14 -10 -19q-21 -10 -87 -19t-102 -9l-29 1q-27 -61 -37 -83v-1q0 -3 3 -3
q115 -14 139 -113q5 -21 5 -41q0 -46 -28 -82q-40 -52 -113 -70q-16 -4 -39 -4q-16 0 -35 2q-47 4 -67 16q-1 1 -2 4q3 20 8 87q1 3 4 3h1q37 -14 70 -14q17 0 33 4q30 7 45 28q10 14 10 32q0 9 -2 18q-11 44 -51 63q-26 12 -56 12q-15 0 -31 -3l-10 -3q-3 -1 -5 -1
q-5 0 -5 4q0 2 1 4q15 35 43 105q9 22 20 48q-152 31 -257 140q-148 153 -148 388q0 268 188 434q189 167 458 167q88 0 167 -31z" />
    <glyph glyph-name="Egrave" unicode="&#xc8;" horiz-adv-x="905" 
d="M855 197q-2 -7 -17 -55t-33.5 -108.5t-20.5 -66.5q-6 -6 -8 -6q-402 29 -631 62q-6 0 -6 6q-25 395 -27 766q0 90 4 299q0 6 6 6q41 4 158 12t181.5 13t158.5 15.5t166 22.5q8 0 8 -8q0 -18 -1 -38.5t-3 -45t-2 -39.5q0 -37 4 -110q0 -7 -6 -7q-70 -4 -209 -4t-213 -4
q-6 0 -6 -6q-3 -26 -3 -65q0 -20 1 -42q1 -35 1 -62q0 -26 -1 -46q0 -6 8 -6q24 -2 65 -4t45 -2q87 0 259 8h2q4 0 4 -6q-2 -51 -27 -207q0 -6 -6 -6q-25 0 -102 -2q-39 -1 -69 -1q-29 0 -50 1q-19 0 -60 1t-63 1q-6 0 -8 -6v-211q0 -2 6 -8q155 -21 487 -33q8 0 8 -8z
M233 1392q22 19 66.5 57.5t66.5 58.5q2 1 4 1q3 0 7 -1q63 -42 181 -231q4 -4 4 -6t-2 -4q-4 -7 -26 -34t-37 -50q-3 -3 -6 -3q-2 0 -5 3q-9 8 -44 36t-58 47q-54 49 -149 113q-4 4 -4 8q0 3 2 5z" />
    <glyph glyph-name="Eacute" unicode="&#xc9;" horiz-adv-x="905" 
d="M855 197q-2 -7 -17 -55t-33.5 -108.5t-20.5 -66.5q-6 -6 -8 -6q-402 29 -631 62q-6 0 -6 6q-25 395 -27 766q0 90 4 299q0 6 6 6q41 4 158 12t181.5 13t158.5 15.5t166 22.5q8 0 8 -8q0 -18 -1 -38.5t-3 -45t-2 -39.5q0 -37 4 -110q0 -7 -6 -7q-70 -4 -209 -4t-213 -4
q-6 0 -6 -6q-3 -26 -3 -65q0 -20 1 -42q1 -35 1 -62q0 -26 -1 -46q0 -6 8 -6q24 -2 65 -4t45 -2q87 0 259 8h2q4 0 4 -6q-2 -51 -27 -207q0 -6 -6 -6q-25 0 -102 -2q-39 -1 -69 -1q-29 0 -50 1q-19 0 -60 1t-63 1q-6 0 -8 -6v-211q0 -2 6 -8q155 -21 487 -33q8 0 8 -8z
M698 1375q3 -3 3 -6t-4 -7q-96 -64 -150 -113q-22 -19 -57.5 -47t-43.5 -36q-3 -3 -6 -3t-6 3q-15 23 -36.5 50t-25.5 34q-2 2 -2 4q0 3 3 6q118 189 182 231q4 1 6 1q3 0 4 -1q22 -20 66.5 -58.5t66.5 -57.5z" />
    <glyph glyph-name="Ecircumflex" unicode="&#xca;" horiz-adv-x="905" 
d="M855 197q-2 -7 -17 -55t-33.5 -108.5t-20.5 -66.5q-6 -6 -8 -6q-402 29 -631 62q-6 0 -6 6q-25 395 -27 766q0 90 4 299q0 6 6 6q41 4 158 12t181.5 13t158.5 15.5t166 22.5q8 0 8 -8q0 -18 -1 -38.5t-3 -45t-2 -39.5q0 -37 4 -110q0 -7 -6 -7q-70 -4 -209 -4t-213 -4
q-6 0 -6 -6q-3 -26 -3 -65q0 -20 1 -42q1 -35 1 -62q0 -26 -1 -46q0 -6 8 -6q24 -2 65 -4t45 -2q87 0 259 8h2q4 0 4 -6q-2 -51 -27 -207q0 -6 -6 -6q-25 0 -102 -2q-39 -1 -69 -1q-29 0 -50 1q-19 0 -60 1t-63 1q-6 0 -8 -6v-211q0 -2 6 -8q155 -21 487 -33q8 0 8 -8z
M488 1322q-113 -101 -153 -129q-3 -1 -6 -1q-6 1 -59 1q-63 1 -73 1q-45 1 -67 2l-4 1q0 1 1 1q11 9 160 127q147 118 152 121q2 1 4 1h1q4 0 44 -3q34 -3 49 -4q2 0 2 -1t1 -1l148 -116q145 -114 171 -132q0 -1 -5 -2q-20 -1 -66 -2q-10 0 -74 -1q-55 0 -61 -1q-3 0 -5 1
q-27 18 -160 137z" />
    <glyph glyph-name="Edieresis" unicode="&#xcb;" horiz-adv-x="905" 
d="M855 197q-2 -7 -17 -55t-33.5 -108.5t-20.5 -66.5q-6 -6 -8 -6q-402 29 -631 62q-6 0 -6 6q-25 395 -27 766q0 90 4 299q0 6 6 6q41 4 158 12t181.5 13t158.5 15.5t166 22.5q8 0 8 -8q0 -18 -1 -38.5t-3 -45t-2 -39.5q0 -37 4 -110q0 -7 -6 -7q-70 -4 -209 -4t-213 -4
q-6 0 -6 -6q-3 -26 -3 -65q0 -20 1 -42q1 -35 1 -62q0 -26 -1 -46q0 -6 8 -6q24 -2 65 -4t45 -2q87 0 259 8h2q4 0 4 -6q-2 -51 -27 -207q0 -6 -6 -6q-25 0 -102 -2q-39 -1 -69 -1q-29 0 -50 1q-19 0 -60 1t-63 1q-6 0 -8 -6v-211q0 -2 6 -8q155 -21 487 -33q8 0 8 -8z
M310 1444q48 0 77 -35t29 -84q0 -43 -33 -75t-76 -32q-49 0 -85 34t-36 82q0 45 38.5 77.5t85.5 32.5zM656 1442q45 0 73 -38t28 -85q0 -41 -27 -75t-71 -34q-51 0 -82.5 34t-31.5 83t31.5 82t79.5 33z" />
    <glyph glyph-name="Igrave" unicode="&#xcc;" horiz-adv-x="690" 
d="M601 -2q1 -2 1 -4q0 -4 -7 -4q-133 -13 -438 -39q-2 -1 -4 -1q-4 0 -4 7q-9 109 -15 156q0 8 9 8q14 2 54 6t52 6q6 0 6 8q-8 234 -37 752q0 8 -8 8l-119 -12q-6 0 -6 8q0 25 -4 82t-4 84q0 6 6 6q471 72 490 76q4 0 8 -6q4 -37 9 -102.5t7 -86.5q0 -6 -6 -6
q-27 -6 -80 -12t-78 -10q-6 0 -6 -7q33 -534 49 -755q2 -6 9 -6q86 8 102 12q8 0 8 -8q6 -154 6 -160zM103 1346q22 19 66.5 57.5t66.5 58.5q2 1 4 1q3 0 7 -1q63 -42 181 -231q4 -4 4 -6t-2 -4q-4 -7 -26 -34t-37 -50q-3 -3 -6 -3q-2 0 -5 3q-9 8 -44 36t-58 47
q-54 49 -149 113q-4 4 -4 8q0 3 2 5z" />
    <glyph glyph-name="Iacute" unicode="&#xcd;" horiz-adv-x="690" 
d="M601 -2q1 -2 1 -4q0 -4 -7 -4q-133 -13 -438 -39q-2 -1 -4 -1q-4 0 -4 7q-9 109 -15 156q0 8 9 8q14 2 54 6t52 6q6 0 6 8q-8 234 -37 752q0 8 -8 8l-119 -12q-6 0 -6 8q0 25 -4 82t-4 84q0 6 6 6q471 72 490 76q4 0 8 -6q4 -37 9 -102.5t7 -86.5q0 -6 -6 -6
q-27 -6 -80 -12t-78 -10q-6 0 -6 -7q33 -534 49 -755q2 -6 9 -6q86 8 102 12q8 0 8 -8q6 -154 6 -160zM561 1394q3 -3 3 -6t-4 -7q-96 -64 -150 -113q-22 -19 -57.5 -47t-43.5 -36q-3 -3 -6 -3t-6 3q-15 23 -36.5 50t-25.5 34q-2 2 -2 4q0 3 3 6q118 189 182 231q4 1 6 1
q3 0 4 -1q22 -20 66.5 -58.5t66.5 -57.5z" />
    <glyph glyph-name="Icircumflex" unicode="&#xce;" horiz-adv-x="690" 
d="M601 -2q1 -2 1 -4q0 -4 -7 -4q-133 -13 -438 -39q-2 -1 -4 -1q-4 0 -4 7q-9 109 -15 156q0 8 9 8q14 2 54 6t52 6q6 0 6 8q-8 234 -37 752q0 8 -8 8l-119 -12q-6 0 -6 8q0 25 -4 82t-4 84q0 6 6 6q471 72 490 76q4 0 8 -6q4 -37 9 -102.5t7 -86.5q0 -6 -6 -6
q-27 -6 -80 -12t-78 -10q-6 0 -6 -7q33 -534 49 -755q2 -6 9 -6q86 8 102 12q8 0 8 -8q6 -154 6 -160zM351 1311q-113 -101 -153 -129q-3 -1 -6 -1q-6 1 -59 1q-63 1 -73 1q-45 1 -67 2l-4 1q0 1 1 1q11 9 160 127q147 118 152 121q2 1 4 1h1q4 0 44 -3q34 -3 49 -4
q2 0 2 -1t1 -1l148 -116q145 -114 171 -132q0 -1 -5 -2q-20 -1 -66 -2q-10 0 -74 -1q-55 0 -61 -1q-3 0 -5 1q-27 18 -160 137z" />
    <glyph glyph-name="Idieresis" unicode="&#xcf;" horiz-adv-x="690" 
d="M602 -2q1 -2 1 -4q0 -4 -7 -4q-133 -13 -438 -39q-2 -1 -4 -1q-4 0 -4 7q-9 109 -15 156q0 8 9 8q14 2 54 6t52 6q6 0 6 8q-8 234 -37 752q0 8 -8 8l-119 -12q-6 0 -6 8q0 25 -4 82t-4 84q0 6 6 6q471 72 490 76q4 0 8 -6q4 -37 9 -102.5t7 -86.5q0 -6 -6 -6
q-27 -6 -80 -12t-78 -10q-6 0 -6 -7q33 -534 49 -755q2 -6 9 -6q86 8 102 12q8 0 8 -8q6 -154 6 -160zM168 1403q48 0 77 -35t29 -84q0 -43 -33.5 -75t-75.5 -32q-49 0 -85.5 34t-36.5 82q0 45 39 77.5t86 32.5zM514 1401q44 0 72.5 -38t28.5 -85q0 -41 -27 -75t-71 -34
q-51 0 -82.5 34t-31.5 83t31.5 82t79.5 33z" />
    <glyph glyph-name="Eth" unicode="&#xd0;" horiz-adv-x="1518" 
 />
    <glyph glyph-name="Ntilde" unicode="&#xd1;" horiz-adv-x="993" 
d="M885 1112q-2 -117 -7.5 -331t-8.5 -389t-3 -331v-79q0 -15 -9 -18q-2 -1 -4 -1q-7 0 -13 8q-29 29 -117 115t-131 129q-45 47 -129 138t-117 128q-3 5 -7 5q-1 0 -2 -1q-4 -1 -4 -5q0 -1 1 -3q2 -26 10 -95t10 -83q21 -172 43 -326q0 -8 -8 -8q-58 7 -120 7
q-51 0 -105 -5q-1 -1 -2 -1t-2 2q-2 3 -2 5q-7 70 -15 209q-2 19 -14 227.5t-17 315.5q0 4 -7 159.5t-13 221.5q0 8 6 11q2 1 3 1q5 0 9 -6q11 -14 44.5 -56t43.5 -57q226 -309 453 -553q3 -3 6 -3q1 0 3 1q4 1 4 5q0 2 -1 4q-14 305 -47 659q0 6 6 6q27 -1 65 -1
q74 0 189 3q9 0 9 -8zM779 1300q2 -22 2 -29v-2q-89 -52 -156 -68q-33 -7 -62 -7q-55 0 -101 25q-16 10 -32 19q-66 32 -127 32q-29 0 -57 -7q-15 -3 -28 -9q-37 -19 -55 -37l-1 -1q-4 0 -11 18q-6 19 -14 50q-13 58 -13 74q0 5 1 6q27 27 40 31q12 7 28 13q55 21 108 21
q36 0 70 -9q18 -4 35 -11q18 -5 42 -18q32 -18 38 -21q33 -14 71 -14q31 0 65 9q43 12 131 55q2 0 6 -9l7 -19q4 -10 7 -34q3 -25 3 -24q1 -3 3 -34z" />
    <glyph glyph-name="Ograve" unicode="&#xd2;" horiz-adv-x="1081" 
d="M1005 543q0 -84 -22.5 -182.5t-61.5 -163.5q-127 -230 -387 -230q-209 0 -334 156t-125 385q0 156 52 295t164 233t259 94q141 0 247.5 -87t157 -218t50.5 -282zM761 528q0 56 -8 110t-26.5 110.5t-58.5 91t-93 34.5q-129 0 -191.5 -99t-62.5 -251q0 -346 211 -346
q123 0 176 100.5t53 249.5zM300 1386q22 19 66.5 57.5t66.5 58.5q2 1 4 1q3 0 7 -1q63 -42 181 -231q4 -4 4 -6t-2 -4q-4 -7 -26 -34t-37 -50q-3 -3 -6 -3q-2 0 -5 3q-9 8 -44 36t-58 47q-54 49 -149 113q-4 4 -4 8q0 3 2 5z" />
    <glyph glyph-name="Oacute" unicode="&#xd3;" horiz-adv-x="1081" 
d="M1005 543q0 -84 -22.5 -182.5t-61.5 -163.5q-127 -230 -387 -230q-209 0 -334 156t-125 385q0 156 52 295t164 233t259 94q141 0 247.5 -87t157 -218t50.5 -282zM761 528q0 56 -8 110t-26.5 110.5t-58.5 91t-93 34.5q-129 0 -191.5 -99t-62.5 -251q0 -346 211 -346
q123 0 176 100.5t53 249.5zM788 1409q3 -3 3 -6t-4 -7q-96 -64 -150 -113q-22 -19 -57.5 -47t-43.5 -36q-3 -3 -6 -3t-6 3q-15 23 -36.5 50t-25.5 34q-2 2 -2 4q0 3 3 6q118 189 182 231q4 1 6 1q3 0 4 -1q22 -20 66.5 -58.5t66.5 -57.5z" />
    <glyph glyph-name="Ocircumflex" unicode="&#xd4;" horiz-adv-x="1081" 
d="M1005 543q0 -84 -22.5 -182.5t-61.5 -163.5q-127 -230 -387 -230q-209 0 -334 156t-125 385q0 156 52 295t164 233t259 94q141 0 247.5 -87t157 -218t50.5 -282zM761 528q0 56 -8 110t-26.5 110.5t-58.5 91t-93 34.5q-129 0 -191.5 -99t-62.5 -251q0 -346 211 -346
q123 0 176 100.5t53 249.5zM561 1315q-113 -101 -153 -129q-3 -1 -6 -1q-6 1 -59 1q-63 1 -73 1q-45 1 -67 2l-4 1q0 1 1 1q11 9 160 127q147 118 152 121q2 1 4 1h1q4 0 44 -3q34 -3 49 -4q2 0 2 -1t1 -1l148 -116q145 -114 171 -132q0 -1 -5 -2q-20 -1 -66 -2
q-10 0 -74 -1q-55 0 -61 -1q-3 0 -5 1q-27 18 -160 137z" />
    <glyph glyph-name="Otilde" unicode="&#xd5;" horiz-adv-x="1081" 
d="M1005 543q0 -84 -22.5 -182.5t-61.5 -163.5q-127 -230 -387 -230q-209 0 -334 156t-125 385q0 156 52 295t164 233t259 94q141 0 247.5 -87t157 -218t50.5 -282zM761 528q0 56 -8 110t-26.5 110.5t-58.5 91t-93 34.5q-129 0 -191.5 -99t-62.5 -251q0 -346 211 -346
q123 0 176 100.5t53 249.5zM880 1296q3 -30 3 -31q-89 -52 -157 -68q-33 -7 -62 -7q-55 0 -101 25q-15 10 -32 19q-66 32 -127 32q-29 0 -57 -7q-15 -3 -28 -9q-37 -19 -55 -37l-1 -1q-4 0 -11 18q-6 19 -14 50q-13 58 -13 74q0 5 1 6q28 27 40 31q12 7 28 13q55 21 108 21
q36 0 70 -9q18 -4 35 -11q18 -5 42 -18q32 -18 38 -21q33 -14 71 -14q31 0 65 9q43 12 131 55q2 0 6 -9l7 -19q4 -10 7 -34q3 -25 3 -24q1 -3 3 -34z" />
    <glyph glyph-name="Odieresis" unicode="&#xd6;" horiz-adv-x="1081" 
d="M1005 543q0 -84 -22.5 -182.5t-61.5 -163.5q-127 -230 -387 -230q-209 0 -334 156t-125 385q0 156 52 295t164 233t259 94q141 0 247.5 -87t157 -218t50.5 -282zM761 528q0 56 -8 110t-26.5 110.5t-58.5 91t-93 34.5q-129 0 -191.5 -99t-62.5 -251q0 -346 211 -346
q123 0 176 100.5t53 249.5zM371 1413q48 0 77 -35t29 -84q0 -43 -33 -75t-76 -32q-49 0 -85 34t-36 82q0 45 38.5 77.5t85.5 32.5zM717 1411q45 0 73 -38t28 -85q0 -41 -27 -75t-71 -34q-51 0 -82.5 34t-31.5 83t31.5 82t79.5 33z" />
    <glyph glyph-name="multiply" unicode="&#xd7;" horiz-adv-x="657" 
 />
    <glyph glyph-name="Oslash" unicode="&#xd8;" horiz-adv-x="657" 
 />
    <glyph glyph-name="Ugrave" unicode="&#xd9;" horiz-adv-x="1001" 
d="M919 674q0 -117 -7 -203t-32.5 -183.5t-71.5 -157.5t-128 -101t-197 -41q-137 0 -219 101t-106 259q-13 78 -25 198t-25.5 286.5l-19.5 240.5q0 8 6 8q35 6 108.5 25.5t131.5 30.5h2q5 0 8 -7q0 -26 5 -100t5 -115q13 -432 29 -540q8 -56 42 -99t93 -43q27 0 49.5 7.5
t39 24t27.5 31.5t18 42t12.5 44t7.5 50t3 47.5t1 47.5v79q0 226 -39 490q0 6 6 8q37 4 248 47q8 0 8 -6q20 -230 20 -471zM276 1388q22 19 66.5 57.5t66.5 58.5q2 1 4 1q3 0 7 -1q63 -42 181 -231q4 -4 4 -6t-2 -4q-4 -7 -26 -34t-37 -50q-3 -3 -6 -3q-2 0 -5 3q-9 8 -44 36
t-58 47q-54 49 -149 113q-4 4 -4 8q0 3 2 5z" />
    <glyph glyph-name="Uacute" unicode="&#xda;" horiz-adv-x="1001" 
d="M919 674q0 -117 -7 -203t-32.5 -183.5t-71.5 -157.5t-128 -101t-197 -41q-137 0 -219 101t-106 259q-13 78 -25 198t-25.5 286.5l-19.5 240.5q0 8 6 8q35 6 108.5 25.5t131.5 30.5h2q5 0 8 -7q0 -26 5 -100t5 -115q13 -432 29 -540q8 -56 42 -99t93 -43q27 0 49.5 7.5
t39 24t27.5 31.5t18 42t12.5 44t7.5 50t3 47.5t1 47.5v79q0 226 -39 490q0 6 6 8q37 4 248 47q8 0 8 -6q20 -230 20 -471zM750 1437q3 -3 3 -6t-4 -7q-96 -64 -150 -113q-22 -19 -57.5 -47t-43.5 -36q-3 -3 -6 -3t-6 3q-15 23 -36.5 50t-25.5 34q-2 2 -2 4q0 3 3 6
q118 189 182 231q4 1 6 1q3 0 4 -1q22 -20 66.5 -58.5t66.5 -57.5z" />
    <glyph glyph-name="Ucircumflex" unicode="&#xdb;" horiz-adv-x="1001" 
d="M919 674q0 -117 -7 -203t-32.5 -183.5t-71.5 -157.5t-128 -101t-197 -41q-137 0 -219 101t-106 259q-13 78 -25 198t-25.5 286.5l-19.5 240.5q0 8 6 8q35 6 108.5 25.5t131.5 30.5h2q5 0 8 -7q0 -26 5 -100t5 -115q13 -432 29 -540q8 -56 42 -99t93 -43q27 0 49.5 7.5
t39 24t27.5 31.5t18 42t12.5 44t7.5 50t3 47.5t1 47.5v79q0 226 -39 490q0 6 6 8q37 4 248 47q8 0 8 -6q20 -230 20 -471zM482 1319q-113 -101 -153 -129q-3 -1 -6 -1q-6 1 -59 1q-63 1 -73 1q-45 1 -67 2l-4 1q0 1 1 1q11 9 160 127q147 118 152 121q2 1 4 1h1q4 0 44 -3
q34 -3 49 -4q2 0 2 -1t1 -1l148 -116q145 -114 171 -132q0 -1 -5 -2q-20 -1 -66 -2q-10 0 -74 -1q-55 0 -61 -1q-3 0 -5 1q-27 18 -160 137z" />
    <glyph glyph-name="Udieresis" unicode="&#xdc;" horiz-adv-x="1001" 
d="M919 674q0 -117 -7 -203t-32.5 -183.5t-71.5 -157.5t-128 -101t-197 -41q-137 0 -219 101t-106 259q-13 78 -25 198t-25.5 286.5l-19.5 240.5q0 8 6 8q35 6 108.5 25.5t131.5 30.5h2q5 0 8 -7q0 -26 5 -100t5 -115q13 -432 29 -540q8 -56 42 -99t93 -43q27 0 49.5 7.5
t39 24t27.5 31.5t18 42t12.5 44t7.5 50t3 47.5t1 47.5v79q0 226 -39 490q0 6 6 8q37 4 248 47q8 0 8 -6q20 -230 20 -471zM319 1435q48 0 77 -35t29 -84q0 -43 -33 -75t-76 -32q-49 0 -85 34t-36 82q0 45 38.5 77.5t85.5 32.5zM665 1433q45 0 73 -38t28 -85q0 -41 -27 -75
t-71 -34q-51 0 -82.5 34t-31.5 83t31.5 82t79.5 33z" />
    <glyph glyph-name="Yacute" unicode="&#xdd;" horiz-adv-x="1052" 
d="M1017 1040q-51 -69 -145 -209q-56 -79 -148 -224.5t-125 -194.5q-4 -6 -4 -19q-2 -74 -5 -219t-3 -203q0 -8 -8 -8q-174 10 -228 17q-7 0 -7 4q0 2 1 4q29 286 29 418q0 8 -6 20q-29 63 -118 217t-112 193q-6 10 -46 77.5t-58 102.5q-1 1 -1 3v2q1 3 3 3q35 16 117 49
t100 41q3 2 5 2q3 0 3 -4q25 -61 111 -234t121 -253q4 -6 7 -6t5 6q16 28 266 505q0 4 4 4q2 0 5 -1q116 -43 233 -80q5 -3 5 -8q0 -2 -1 -5zM748 1375q3 -3 3 -6t-4 -7q-96 -64 -150 -113q-22 -19 -57.5 -47t-43.5 -36q-3 -3 -6 -3t-6 3q-15 23 -36.5 50t-25.5 34
q-2 2 -2 4q0 3 3 6q118 189 182 231q4 1 6 1q3 0 4 -1q22 -20 66.5 -58.5t66.5 -57.5z" />
    <glyph glyph-name="Thorn" unicode="&#xde;" horiz-adv-x="1614" 
 />
    <glyph glyph-name="germandbls" unicode="&#xdf;" horiz-adv-x="995" 
d="M901 346q16 -36 16 -81q0 -107 -101 -166q-101 -58 -222 -58q-137 0 -223 64q-3 3 -3 5t1 3q9 26 28 76q19 51 28 74q2 4 5 4q2 0 5 -2q118 -64 176 -64q38 0 72 19q34 18 34 58q0 34 -31 56q-30 23 -90 42q-60 18 -64 20q-61 29 -95 87t-34 130q0 19 2 36q3 18 8 34
q11 44 75 94q14 11 20 15q19 12 33 29q10 16 16 33q9 15 13 32q4 16 4 32q-4 50 -34 91q-32 36 -88 40h-13q-43 0 -86 -16q-17 -8 -32 -21q-15 -12 -29 -27q-9 -14 -11 -29q-7 -36 -11 -146v-141q0 -2 4 -88t4 -88q-1 -9 -1 -24q0 -26 4 -69q7 -208 16 -342q1 0 1 -1
q0 -2 -5 -6q-37 -11 -107 -28t-86 -21q-2 -1 -3 -1q-4 0 -4 7v111l2 162v58q0 65 -1 158q0 1 -3 79q-4 78 -4 80l2 244q2 128 76 213q36 43 87 65q16 7 34 12q12 4 24 7t24 5q58 9 108 9q196 0 269 -135q11 -18 19 -37q15 -39 15 -82v-5q1 -13 1 -25v-13q-2 -20 -6 -40
q-2 -17 -6 -34q-25 -98 -124 -175q-13 -14 -19 -30q-8 -20 -8 -32q0 -27 10 -46q9 -19 27 -30q9 -3 95 -45q48 -21 74 -35q27 -13 61 -39q35 -26 51 -62z" />
    <glyph glyph-name="agrave" unicode="&#xe0;" horiz-adv-x="788" 
d="M696 506q0 -21 -7 -131q-6 -72 -20 -205t-18 -176q0 -6 -7 -6q-18 -4 -163 -21q-1 -1 -2 -1t-2 1q-3 2 -3 6v97q0 9 -5 9q-3 0 -7 -3q-84 -60 -153 -60q-103 0 -170.5 59.5t-67.5 160.5q0 104 85 170.5t194 66.5q73 0 124 -20q2 -1 4 -1q4 0 5 3q2 4 4 12q2 12 2 31
q0 49 -30 82.5t-77 33.5q-123 0 -241 -90q-4 -1 -6 -1q-5 0 -5 5q-32 107 -51 158q-1 1 -1 2q0 2 3 6q148 117 316 117q139 0 219 -84t80 -221zM479 283q0 24 -24 39q-21 12 -42 12h-6q-158 -6 -158 -103q0 -24 31 -37.5t65 -13.5q48 0 91 28t43 75zM139 1088
q22 19 66.5 57.5t66.5 58.5q2 1 4 1q3 0 7 -1q63 -42 181 -231q4 -4 4 -6t-2 -4q-4 -7 -26 -34t-37 -50q-3 -3 -6 -3q-2 0 -5 3q-9 8 -44 36t-58 47q-54 49 -149 113q-4 4 -4 8q0 3 2 5z" />
    <glyph glyph-name="aacute" unicode="&#xe1;" horiz-adv-x="788" 
d="M696 506q0 -21 -7 -131q-6 -72 -20 -205t-18 -176q0 -6 -7 -6q-18 -4 -163 -21q-1 -1 -2 -1t-2 1q-3 2 -3 6v97q0 9 -5 9q-3 0 -7 -3q-84 -60 -153 -60q-103 0 -170.5 59.5t-67.5 160.5q0 104 85 170.5t194 66.5q73 0 124 -20q2 -1 4 -1q4 0 5 3q2 4 4 12q2 12 2 31
q0 49 -30 82.5t-77 33.5q-123 0 -241 -90q-4 -1 -6 -1q-5 0 -5 5q-32 107 -51 158q-1 1 -1 2q0 2 3 6q148 117 316 117q139 0 219 -84t80 -221zM479 283q0 24 -24 39q-21 12 -42 12h-6q-158 -6 -158 -103q0 -24 31 -37.5t65 -13.5q48 0 91 28t43 75zM600 1102q3 -3 3 -6
t-4 -7q-96 -64 -150 -113q-22 -19 -57.5 -47t-43.5 -36q-3 -3 -6 -3t-6 3q-15 23 -36.5 50t-25.5 34q-2 2 -2 4q0 3 3 6q118 189 182 231q4 1 6 1q3 0 4 -1q22 -20 66.5 -58.5t66.5 -57.5z" />
    <glyph glyph-name="acircumflex" unicode="&#xe2;" horiz-adv-x="788" 
d="M696 506q0 -21 -7 -131q-6 -72 -20 -205t-18 -176q0 -6 -7 -6q-18 -4 -163 -21q-1 -1 -2 -1t-2 1q-3 2 -3 6v97q0 9 -5 9q-3 0 -7 -3q-84 -60 -153 -60q-103 0 -170.5 59.5t-67.5 160.5q0 104 85 170.5t194 66.5q73 0 124 -20q2 -1 4 -1q4 0 5 3q2 4 4 12q2 12 2 31
q0 49 -30 82.5t-77 33.5q-123 0 -241 -90q-4 -1 -6 -1q-5 0 -5 5q-32 107 -51 158q-1 1 -1 2q0 2 3 6q148 117 316 117q139 0 219 -84t80 -221zM479 283q0 24 -24 39q-21 12 -42 12h-6q-158 -6 -158 -103q0 -24 31 -37.5t65 -13.5q48 0 91 28t43 75zM398 1000
q-113 -101 -153 -129q-3 -1 -6 -1q-6 1 -59 1q-63 1 -73 1q-45 1 -67 2l-4 1q0 1 1 1q11 9 160 127q147 118 152 121q2 1 4 1h1q4 0 44 -3q34 -3 49 -4q2 0 2 -1t1 -1l148 -116q145 -114 171 -132q0 -1 -5 -2q-20 -1 -66 -2q-10 0 -74 -1q-55 0 -61 -1q-3 0 -5 1
q-27 18 -160 137z" />
    <glyph glyph-name="atilde" unicode="&#xe3;" horiz-adv-x="788" 
d="M696 506q0 -21 -7 -131q-6 -72 -20 -205t-18 -176q0 -6 -7 -6q-18 -4 -163 -21q-1 -1 -2 -1t-2 1q-3 2 -3 6v97q0 9 -5 9q-3 0 -7 -3q-84 -60 -153 -60q-103 0 -170.5 59.5t-67.5 160.5q0 104 85 170.5t194 66.5q73 0 124 -20q2 -1 4 -1q4 0 5 3q2 4 4 12q2 12 2 31
q0 49 -30 82.5t-77 33.5q-123 0 -241 -90q-4 -1 -6 -1q-5 0 -5 5q-32 107 -51 158q-1 1 -1 2q0 2 3 6q148 117 316 117q139 0 219 -84t80 -221zM479 283q0 24 -24 39q-21 12 -42 12h-6q-158 -6 -158 -103q0 -24 31 -37.5t65 -13.5q48 0 91 28t43 75zM702 974q3 -30 3 -31
q-89 -52 -157 -68q-33 -7 -62 -7q-55 0 -101 25q-15 10 -32 19q-66 32 -127 32q-29 0 -57 -7q-15 -3 -28 -9q-37 -19 -55 -37l-1 -1q-4 0 -11 18q-6 19 -14 50q-13 58 -13 74q0 5 1 6q28 27 40 31q12 7 28 13q55 21 108 21q36 0 70 -9q18 -4 35 -11q18 -5 42 -18
q32 -18 38 -21q33 -14 71 -14q31 0 65 9q43 12 131 55q2 0 6 -9l7 -19q4 -10 7 -34q3 -25 3 -24q1 -3 3 -34z" />
    <glyph glyph-name="adieresis" unicode="&#xe4;" horiz-adv-x="788" 
d="M696 506q0 -21 -7 -131q-6 -72 -20 -205t-18 -176q0 -6 -7 -6q-18 -4 -163 -21q-1 -1 -2 -1t-2 1q-3 2 -3 6v97q0 9 -5 9q-3 0 -7 -3q-84 -60 -153 -60q-103 0 -170.5 59.5t-67.5 160.5q0 104 85 170.5t194 66.5q73 0 124 -20q2 -1 4 -1q4 0 5 3q2 4 4 12q2 12 2 31
q0 49 -30 82.5t-77 33.5q-123 0 -241 -90q-4 -1 -6 -1q-5 0 -5 5q-32 107 -51 158q-1 1 -1 2q0 2 3 6q148 117 316 117q139 0 219 -84t80 -221zM479 283q0 24 -24 39q-21 12 -42 12h-6q-158 -6 -158 -103q0 -24 31 -37.5t65 -13.5q48 0 91 28t43 75zM232 1088q48 0 77 -35
t29 -84q0 -43 -33 -75t-76 -32q-49 0 -85 34t-36 82q0 45 38.5 77.5t85.5 32.5zM578 1086q45 0 73 -38t28 -85q0 -41 -27 -75t-71 -34q-51 0 -82.5 34t-31.5 83t31.5 82t79.5 33z" />
    <glyph glyph-name="aring" unicode="&#xe5;" horiz-adv-x="922" 
 />
    <glyph glyph-name="ae" unicode="&#xe6;" horiz-adv-x="1454" 
 />
    <glyph glyph-name="ccedilla" unicode="&#xe7;" horiz-adv-x="784" 
d="M748 86q-90 -90 -227 -113q-30 -66 -41 -92v-1q0 -3 3 -3q115 -14 139 -114q5 -21 5 -40q0 -46 -28 -82q-40 -53 -113 -70q-17 -4 -44 -4q-14 0 -30 1q-47 4 -67 17q-1 0 -2 3q3 20 8 87q1 3 4 3h1q36 -13 68 -13q18 0 35 4q30 7 45 28q10 14 10 32q0 8 -2 17
q-11 45 -51 64q-26 12 -56 12q-15 0 -31 -3l-11 -3q-3 -1 -4 -1q-5 0 -5 4q0 2 1 4q15 35 43 105q8 18 16 38q-165 4 -255 134q-93 136 -93 294q0 164 110 287q110 122 278 122q120 0 240 -49q4 -5 4 -9q-6 -25 -22 -90q-15 -62 -19 -89q-4 -6 -11 -6q-99 34 -145 34
q-99 0 -152 -65q-53 -66 -53 -165q0 -87 55 -147t136 -60q97 0 200 95q3 2 6 2q5 0 7 -6q7 -24 26 -80q20 -57 24 -76z" />
    <glyph glyph-name="egrave" unicode="&#xe8;" horiz-adv-x="811" 
d="M761 408q0 -7 -6 -7q-172 -18 -420 -39q-6 0 -8 -6v-5q0 -73 60 -112q47 -31 100 -31q16 0 33 3q71 10 126 49q2 1 4 1q4 0 7 -5q22 -57 63 -172q0 -6 -4 -8q-102 -64 -258 -64q-164 0 -256 109.5t-113 273.5q-3 29 -3 57q0 123 64 228q79 129 236 147q28 3 54 3
q134 0 209 -90q88 -109 108 -287q4 -29 4 -45zM558 526q-27 132 -118 132q-9 0 -19 -1q-49 -6 -81 -51q-31 -42 -31 -95v-7q0 -6 8 -6q116 6 235 20q6 0 6 8zM165 1093q22 19 66.5 57.5t66.5 58.5q2 1 4 1q3 0 7 -1q63 -42 181 -231q4 -4 4 -6t-2 -4q-4 -7 -26 -34t-37 -50
q-3 -3 -6 -3q-2 0 -5 3q-9 8 -44 36t-58 47q-54 49 -149 113q-4 4 -4 8q0 3 2 5z" />
    <glyph glyph-name="eacute" unicode="&#xe9;" horiz-adv-x="811" 
d="M761 408q0 -7 -6 -7q-172 -18 -420 -39q-6 0 -8 -6v-5q0 -73 60 -112q47 -31 100 -31q16 0 33 3q71 10 126 49q2 1 4 1q4 0 7 -5q22 -57 63 -172q0 -6 -4 -8q-102 -64 -258 -64q-164 0 -256 109.5t-113 273.5q-3 29 -3 57q0 123 64 228q79 129 236 147q28 3 54 3
q134 0 209 -90q88 -109 108 -287q4 -29 4 -45zM558 526q-27 132 -118 132q-9 0 -19 -1q-49 -6 -81 -51q-31 -42 -31 -95v-7q0 -6 8 -6q116 6 235 20q6 0 6 8zM628 1111q3 -3 3 -6t-4 -7q-96 -64 -150 -113q-22 -19 -57.5 -47t-43.5 -36q-3 -3 -6 -3t-6 3q-15 23 -36.5 50
t-25.5 34q-2 2 -2 4q0 3 3 6q118 189 182 231q4 1 6 1q3 0 4 -1q22 -20 66.5 -58.5t66.5 -57.5z" />
    <glyph glyph-name="ecircumflex" unicode="&#xea;" horiz-adv-x="811" 
d="M761 408q0 -7 -6 -7q-172 -18 -420 -39q-6 0 -8 -6v-5q0 -73 60 -112q47 -31 100 -31q16 0 33 3q71 10 126 49q2 1 4 1q4 0 7 -5q22 -57 63 -172q0 -6 -4 -8q-102 -64 -258 -64q-164 0 -256 109.5t-113 273.5q-3 29 -3 57q0 123 64 228q79 129 236 147q28 3 54 3
q134 0 209 -90q88 -109 108 -287q4 -29 4 -45zM558 526q-27 132 -118 132q-9 0 -19 -1q-49 -6 -81 -51q-31 -42 -31 -95v-7q0 -6 8 -6q116 6 235 20q6 0 6 8zM433 1041q-113 -101 -153 -129q-3 -1 -6 -1q-6 1 -59 1q-63 1 -73 1q-45 1 -67 2l-4 1q0 1 1 1q11 9 160 127
q147 118 152 121q2 1 4 1h1q4 0 44 -3q34 -3 49 -4q2 0 2 -1t1 -1l148 -116q145 -114 171 -132q0 -1 -5 -2q-20 -1 -66 -2q-10 0 -74 -1q-55 0 -61 -1q-3 0 -5 1q-27 18 -160 137z" />
    <glyph glyph-name="edieresis" unicode="&#xeb;" horiz-adv-x="811" 
d="M761 408q0 -7 -6 -7q-172 -18 -420 -39q-6 0 -8 -6v-5q0 -73 60 -112q47 -31 100 -31q16 0 33 3q71 10 126 49q2 1 4 1q4 0 7 -5q22 -57 63 -172q0 -6 -4 -8q-102 -64 -258 -64q-164 0 -256 109.5t-113 273.5q-3 29 -3 57q0 123 64 228q79 129 236 147q28 3 54 3
q134 0 209 -90q88 -109 108 -287q4 -29 4 -45zM558 526q-27 132 -118 132q-9 0 -19 -1q-49 -6 -81 -51q-31 -42 -31 -95v-7q0 -6 8 -6q116 6 235 20q6 0 6 8zM244 1107q48 0 77 -35t29 -84q0 -43 -33 -75t-76 -32q-49 0 -85 34t-36 82q0 45 38.5 77.5t85.5 32.5zM590 1105
q45 0 73 -38t28 -85q0 -41 -27 -75t-71 -34q-51 0 -82.5 34t-31.5 83t31.5 82t79.5 33z" />
    <glyph glyph-name="igrave" unicode="&#xec;" horiz-adv-x="483" 
d="M381 788q-12 -350 -27 -794q0 -6 -6 -6q-31 -2 -98.5 -5t-89.5 -6q-8 0 -8 7q-3 26 -3 77l-2 45q0 48 -2 124.5t-5 165.5t-5 193.5t-4 188.5q0 8 8 8q43 2 129 2q19 3 52.5 5t52.5 2q2 1 4 1q4 0 4 -8zM-4 1180q22 19 66.5 57.5t66.5 58.5q1 1 4 1q2 0 6 -1
q64 -42 182 -231q3 -3 3 -6q0 -2 -2 -4q-4 -7 -26 -34t-37 -50q-2 -3 -5 -3t-6 3q-8 8 -43.5 36t-58.5 47q-53 49 -149 113q-4 4 -4 7t3 6z" />
    <glyph glyph-name="iacute" unicode="&#xed;" horiz-adv-x="483" 
d="M381 788q-12 -350 -27 -794q0 -6 -6 -6q-31 -2 -98.5 -5t-89.5 -6q-8 0 -8 7q-3 26 -3 77l-2 45q0 48 -2 124.5t-5 165.5t-5 193.5t-4 188.5q0 8 8 8q43 2 129 2q19 3 52.5 5t52.5 2q2 1 4 1q4 0 4 -8zM484 1180q3 -3 3 -6t-4 -7q-96 -64 -150 -113q-22 -19 -57.5 -47
t-43.5 -36q-3 -3 -6 -3t-6 3q-15 23 -36.5 50t-25.5 34q-2 2 -2 4q0 3 3 6q118 189 182 231q4 1 6 1q3 0 4 -1q22 -20 66.5 -58.5t66.5 -57.5z" />
    <glyph glyph-name="icircumflex" unicode="&#xee;" horiz-adv-x="483" 
d="M381 788q-12 -350 -27 -794q0 -6 -6 -6q-31 -2 -98.5 -5t-89.5 -6q-8 0 -8 7q-3 26 -3 77l-2 45q0 48 -2 124.5t-5 165.5t-5 193.5t-4 188.5q0 8 8 8q43 2 129 2q19 3 52.5 5t52.5 2q2 1 4 1q4 0 4 -8zM268 996q-113 -101 -153 -129q-3 -1 -6 -1q-6 1 -59 1q-63 1 -73 1
q-45 1 -67 2l-4 1q0 1 1 1q11 9 160 127q147 118 152 121q2 1 4 1h1q4 0 44 -3q34 -3 49 -4q2 0 2 -1t1 -1l148 -116q145 -114 171 -132q0 -1 -5 -2q-20 -1 -66 -2q-10 0 -74 -1q-55 0 -61 -1q-3 0 -5 1q-27 18 -160 137z" />
    <glyph glyph-name="idieresis" unicode="&#xef;" horiz-adv-x="483" 
d="M382 788q-12 -350 -27 -794q0 -6 -6 -6q-31 -2 -98.5 -5t-89.5 -6q-8 0 -8 7q-3 26 -3 77l-2 45q0 48 -2 124.5t-5 165.5t-5 193.5t-4 188.5q0 8 8 8q43 2 129 2q19 3 52.5 5t52.5 2q2 1 4 1q4 0 4 -8zM103 1168q48 0 77 -35t29 -84q0 -43 -33.5 -75t-75.5 -32
q-49 0 -85.5 34t-36.5 82q0 45 39 77.5t86 32.5zM449 1166q44 0 72.5 -38t28.5 -85q0 -41 -27 -75t-71 -34q-51 0 -82.5 34t-31.5 83t31.5 82t79.5 33z" />
    <glyph glyph-name="eth" unicode="&#xf0;" horiz-adv-x="1139" 
 />
    <glyph glyph-name="ntilde" unicode="&#xf1;" horiz-adv-x="868" 
d="M766 311q0 -186 -27 -346q0 -6 -6 -6q-49 -4 -160 -8q-8 0 -8 8q0 18 7 89t7 104q0 2 2 37.5t2 53.5q0 17 1 58v20q0 27 -2 47q-3 25 -7 62t-13 59.5t-21.5 45t-31 34t-42.5 11.5q-39 0 -76 -32t-51 -69q-7 -16 -15 -84q-6 -63 -19.5 -190t-21.5 -191q0 -6 -6 -6
q-55 -2 -168 -2q-8 0 -8 8q10 142 12 156q29 367 29 717q6 6 8 6q41 4 207 14q6 0 6 -8q0 -47 -6 -113q-1 -2 -1 -3q0 -2 2 -3t3 -1q2 0 4 1q64 25 115 25q67 0 135 -42t94 -104q56 -127 56 -348zM807 1060q2 -22 2 -29v-2q-89 -52 -156 -68q-33 -7 -62 -7q-55 0 -101 25
q-16 10 -32 19q-66 32 -127 32q-29 0 -57 -7q-15 -3 -28 -9q-37 -19 -55 -37l-1 -1q-4 0 -11 18q-6 19 -14 50q-13 58 -13 74q0 5 1 6q27 27 40 31q12 7 28 13q55 21 108 21q36 0 70 -9q18 -4 35 -11q18 -5 42 -18q32 -18 38 -21q33 -14 71 -14q31 0 65 9q43 12 131 55
q2 0 6 -9l7 -19q4 -10 7 -34q3 -25 3 -24q1 -3 3 -34z" />
    <glyph glyph-name="ograve" unicode="&#xf2;" horiz-adv-x="856" 
d="M784 389q0 -96 -34 -185t-120 -158t-209 -69q-90 0 -161.5 45.5t-110.5 116t-58.5 143t-19.5 140.5q0 92 38 188.5t124 171t200 74.5q80 0 142.5 -31.5t100.5 -82t63.5 -115t35 -123t9.5 -115.5zM581 412q0 82 -37 159.5t-119 77.5q-55 0 -89 -44t-43 -89t-9 -90
q0 -39 1 -63.5t10 -66.5t24.5 -67.5t48.5 -46t80 -20.5q53 0 85 51t40 101.5t8 97.5zM156 1165q22 19 66.5 57.5t66.5 58.5q2 1 4 1q3 0 7 -1q63 -42 181 -231q4 -4 4 -6t-2 -4q-4 -7 -26 -34t-37 -50q-3 -3 -6 -3q-2 0 -5 3q-9 8 -44 36t-58 47q-54 49 -149 113q-4 4 -4 8
q0 3 2 5z" />
    <glyph glyph-name="oacute" unicode="&#xf3;" horiz-adv-x="856" 
d="M784 389q0 -96 -34 -185t-120 -158t-209 -69q-90 0 -161.5 45.5t-110.5 116t-58.5 143t-19.5 140.5q0 92 38 188.5t124 171t200 74.5q80 0 142.5 -31.5t100.5 -82t63.5 -115t35 -123t9.5 -115.5zM581 412q0 82 -37 159.5t-119 77.5q-55 0 -89 -44t-43 -89t-9 -90
q0 -39 1 -63.5t10 -66.5t24.5 -67.5t48.5 -46t80 -20.5q53 0 85 51t40 101.5t8 97.5zM664 1139q3 -3 3 -6t-4 -7q-96 -64 -150 -113q-22 -19 -57.5 -47t-43.5 -36q-3 -3 -6 -3t-6 3q-15 23 -36.5 50t-25.5 34q-2 2 -2 4q0 3 3 6q118 189 182 231q4 1 6 1q3 0 4 -1
q22 -20 66.5 -58.5t66.5 -57.5z" />
    <glyph glyph-name="ocircumflex" unicode="&#xf4;" horiz-adv-x="856" 
d="M784 389q0 -96 -34 -185t-120 -158t-209 -69q-90 0 -161.5 45.5t-110.5 116t-58.5 143t-19.5 140.5q0 92 38 188.5t124 171t200 74.5q80 0 142.5 -31.5t100.5 -82t63.5 -115t35 -123t9.5 -115.5zM581 412q0 82 -37 159.5t-119 77.5q-55 0 -89 -44t-43 -89t-9 -90
q0 -39 1 -63.5t10 -66.5t24.5 -67.5t48.5 -46t80 -20.5q53 0 85 51t40 101.5t8 97.5zM442 1032q-113 -101 -153 -129q-3 -1 -6 -1q-6 1 -59 1q-63 1 -73 1q-45 1 -67 2l-4 1q0 1 1 1q11 9 160 127q147 118 152 121q2 1 4 1h1q4 0 44 -3q34 -3 49 -4q2 0 2 -1t1 -1l148 -116
q145 -114 171 -132q0 -1 -5 -2q-20 -1 -66 -2q-10 0 -74 -1q-55 0 -61 -1q-3 0 -5 1q-27 18 -160 137z" />
    <glyph glyph-name="otilde" unicode="&#xf5;" horiz-adv-x="856" 
d="M784 389q0 -96 -34 -185t-120 -158t-209 -69q-90 0 -161.5 45.5t-110.5 116t-58.5 143t-19.5 140.5q0 92 38 188.5t124 171t200 74.5q80 0 142.5 -31.5t100.5 -82t63.5 -115t35 -123t9.5 -115.5zM581 412q0 82 -37 159.5t-119 77.5q-55 0 -89 -44t-43 -89t-9 -90
q0 -39 1 -63.5t10 -66.5t24.5 -67.5t48.5 -46t80 -20.5q53 0 85 51t40 101.5t8 97.5zM766 1017q2 -22 2 -29v-2q-89 -52 -156 -68q-33 -7 -62 -7q-55 0 -101 25q-16 10 -32 19q-66 32 -127 32q-29 0 -57 -7q-15 -3 -28 -9q-37 -19 -55 -37l-1 -1q-4 0 -11 18q-6 19 -14 50
q-13 58 -13 74q0 5 1 6q27 27 40 31q12 7 28 13q55 21 108 21q36 0 70 -9q18 -4 35 -11q18 -5 42 -18q32 -18 38 -21q33 -14 71 -14q31 0 65 9q43 12 131 55q2 0 6 -9l7 -19q4 -10 7 -34q3 -25 3 -24q1 -3 3 -34z" />
    <glyph glyph-name="odieresis" unicode="&#xf6;" horiz-adv-x="856" 
d="M784 389q0 -96 -34 -185t-120 -158t-209 -69q-90 0 -161.5 45.5t-110.5 116t-58.5 143t-19.5 140.5q0 92 38 188.5t124 171t200 74.5q80 0 142.5 -31.5t100.5 -82t63.5 -115t35 -123t9.5 -115.5zM581 412q0 82 -37 159.5t-119 77.5q-55 0 -89 -44t-43 -89t-9 -90
q0 -39 1 -63.5t10 -66.5t24.5 -67.5t48.5 -46t80 -20.5q53 0 85 51t40 101.5t8 97.5zM240 1143q48 0 77 -35t29 -84q0 -43 -33 -75t-76 -32q-49 0 -85 34t-36 82q0 45 38.5 77.5t85.5 32.5zM586 1141q45 0 73 -38t28 -85q0 -41 -27 -75t-71 -34q-51 0 -82.5 34t-31.5 83
t31.5 82t79.5 33z" />
    <glyph glyph-name="divide" unicode="&#xf7;" horiz-adv-x="514" 
 />
    <glyph glyph-name="oslash" unicode="&#xf8;" horiz-adv-x="1139" 
 />
    <glyph glyph-name="ugrave" unicode="&#xf9;" horiz-adv-x="821" 
d="M742 481q0 -86 -6 -152.5t-27.5 -144.5t-56 -128t-98 -84.5t-149.5 -34.5q-95 0 -160.5 51t-97 143t-44 180t-16.5 203q-2 68 -2 122q0 55 2 97q0 6 6 6q156 25 223 41q3 1 5 1q6 0 6 -9q-21 -149 -21 -317q0 -316 115 -316q119 0 119 342q0 84 -27 305q0 7 6 7
q37 6 107.5 20t107.5 23q2 1 4 1q4 0 4 -8l3 -174q0 -174 -3 -174zM149 1110q22 19 66.5 57.5t66.5 58.5q2 1 4 1q3 0 7 -1q63 -42 181 -231q4 -4 4 -6t-2 -4q-4 -7 -26 -34t-37 -50q-3 -3 -6 -3q-2 0 -5 3q-9 8 -44 36t-58 47q-54 49 -149 113q-4 4 -4 8q0 3 2 5z" />
    <glyph glyph-name="uacute" unicode="&#xfa;" horiz-adv-x="821" 
d="M742 481q0 -86 -6 -152.5t-27.5 -144.5t-56 -128t-98 -84.5t-149.5 -34.5q-95 0 -160.5 51t-97 143t-44 180t-16.5 203q-2 68 -2 122q0 55 2 97q0 6 6 6q156 25 223 41q3 1 5 1q6 0 6 -9q-21 -149 -21 -317q0 -316 115 -316q119 0 119 342q0 84 -27 305q0 7 6 7
q37 6 107.5 20t107.5 23q2 1 4 1q4 0 4 -8l3 -174q0 -174 -3 -174zM638 1088q3 -3 3 -6t-4 -7q-96 -64 -150 -113q-22 -19 -57.5 -47t-43.5 -36q-3 -3 -6 -3t-6 3q-15 23 -36.5 50t-25.5 34q-2 2 -2 4q0 3 3 6q118 189 182 231q4 1 6 1q3 0 4 -1q22 -20 66.5 -58.5
t66.5 -57.5z" />
    <glyph glyph-name="ucircumflex" unicode="&#xfb;" horiz-adv-x="821" 
d="M742 481q0 -86 -6 -152.5t-27.5 -144.5t-56 -128t-98 -84.5t-149.5 -34.5q-95 0 -160.5 51t-97 143t-44 180t-16.5 203q-2 68 -2 122q0 55 2 97q0 6 6 6q156 25 223 41q3 1 5 1q6 0 6 -9q-21 -149 -21 -317q0 -316 115 -316q119 0 119 342q0 84 -27 305q0 7 6 7
q37 6 107.5 20t107.5 23q2 1 4 1q4 0 4 -8l3 -174q0 -174 -3 -174zM420 1032q-113 -101 -153 -129q-3 -1 -6 -1q-6 1 -59 1q-63 1 -73 1q-45 1 -67 2l-4 1q0 1 1 1q11 9 160 127q147 118 152 121q2 1 4 1h1q4 0 44 -3q34 -3 49 -4q2 0 2 -1t1 -1l148 -116q145 -114 171 -132
q0 -1 -5 -2q-20 -1 -66 -2q-10 0 -74 -1q-55 0 -61 -1q-3 0 -5 1q-27 18 -160 137z" />
    <glyph glyph-name="udieresis" unicode="&#xfc;" horiz-adv-x="821" 
d="M742 481q0 -86 -6 -152.5t-27.5 -144.5t-56 -128t-98 -84.5t-149.5 -34.5q-95 0 -160.5 51t-97 143t-44 180t-16.5 203q-2 68 -2 122q0 55 2 97q0 6 6 6q156 25 223 41q3 1 5 1q6 0 6 -9q-21 -149 -21 -317q0 -316 115 -316q119 0 119 342q0 84 -27 305q0 7 6 7
q37 6 107.5 20t107.5 23q2 1 4 1q4 0 4 -8l3 -174q0 -174 -3 -174zM229 1154q48 0 77 -35t29 -84q0 -43 -33 -75t-76 -32q-49 0 -85 34t-36 82q0 45 38.5 77.5t85.5 32.5zM575 1152q45 0 73 -38t28 -85q0 -41 -27 -75t-71 -34q-51 0 -82.5 34t-31.5 83t31.5 82t79.5 33z" />
    <glyph glyph-name="yacute" unicode="&#xfd;" horiz-adv-x="954" 
d="M862 72q0 -228 -109.5 -359t-328.5 -131q-174 0 -318 137q-2 4 -2 6q0 3 2 5q62 73 117 168q3 4 6 4t6 -4q8 -11 25 -35q53 -78 168 -78q92 0 159.5 68.5t67.5 160.5q0 33 -4 90q0 11 -4 11q-2 0 -6 -4q-72 -62 -122 -84.5t-130 -22.5q-131 0 -210 93t-79 225
q0 104 43 458q0 6 8 6h29q113 0 194 5q9 0 9 -9q-4 -26 -14.5 -75.5t-14.5 -69.5q-35 -209 -35 -260q0 -172 143 -172q37 0 88.5 25.5t75.5 70.5q2 10 2 16q0 19 -3 61t-3 44q-4 31 -17 176t-24 219q0 4 4 8q35 9 111 26t104 26q9 0 9 -7q53 -450 53 -798zM694 1133
q3 -3 3 -6t-4 -7q-96 -64 -150 -113q-22 -19 -57.5 -47t-43.5 -36q-3 -3 -6 -3t-6 3q-15 23 -36.5 50t-25.5 34q-2 2 -2 4q0 3 3 6q118 189 182 231q4 1 6 1q3 0 4 -1q22 -20 66.5 -58.5t66.5 -57.5z" />
    <glyph glyph-name="thorn" unicode="&#xfe;" 
 />
    <glyph glyph-name="ydieresis" unicode="&#xff;" horiz-adv-x="954" 
d="M862 72q0 -228 -109.5 -359t-328.5 -131q-174 0 -318 137q-2 4 -2 6q0 3 2 5q62 73 117 168q3 4 6 4t6 -4q8 -11 25 -35q53 -78 168 -78q92 0 159.5 68.5t67.5 160.5q0 33 -4 90q0 11 -4 11q-2 0 -6 -4q-72 -62 -122 -84.5t-130 -22.5q-131 0 -210 93t-79 225
q0 104 43 458q0 6 8 6h29q113 0 194 5q9 0 9 -9q-4 -26 -14.5 -75.5t-14.5 -69.5q-35 -209 -35 -260q0 -172 143 -172q37 0 88.5 25.5t75.5 70.5q2 10 2 16q0 19 -3 61t-3 44q-4 31 -17 176t-24 219q0 4 4 8q35 9 111 26t104 26q9 0 9 -7q53 -450 53 -798zM285 1182
q48 0 77 -35t29 -84q0 -43 -33 -75t-76 -32q-49 0 -85 34t-36 82q0 45 38.5 77.5t85.5 32.5zM631 1180q45 0 73 -38t28 -85q0 -41 -27 -75t-71 -34q-51 0 -82.5 34t-31.5 83t31.5 82t79.5 33z" />
    <glyph glyph-name="dotlessi" unicode="&#x131;" horiz-adv-x="514" 
 />
    <glyph glyph-name="circumflex" unicode="&#x2c6;" horiz-adv-x="839" 
d="M403 998q-113 -101 -153 -129q-3 -1 -6 -1q-6 1 -59 1q-63 1 -73 1q-45 1 -67 2l-4 1q0 1 1 1q11 9 160 127q147 118 152 121q2 1 4 1h1q4 0 44 -3q34 -3 49 -4q2 0 2 -1t1 -1l148 -116q145 -114 171 -132q0 -1 -5 -2q-20 -1 -66 -2q-10 0 -74 -1q-55 0 -61 -1q-3 0 -5 1
q-27 18 -160 137z" />
    <glyph glyph-name="caron" unicode="&#x2c7;" horiz-adv-x="839" 
d="M413 986q113 100 153 128q3 1 5 1q7 0 59 -1q64 -1 74 -1q45 -1 66 -2q5 0 5 -1l-1 -1q-12 -8 -161 -127q-147 -117 -152 -121q-2 -1 -5 -1q-4 1 -44 4q-33 2 -48 4q-2 0 -3 1l-148 116q-146 114 -171 133h-1q0 1 5 1q21 1 66 2q10 0 75 1q54 1 61 1h5q26 -19 160 -137z
" />
    <glyph glyph-name="uni02C9" unicode="&#x2c9;" 
 />
    <glyph glyph-name="breve" unicode="&#x2d8;" 
 />
    <glyph glyph-name="dotaccent" unicode="&#x2d9;" 
 />
    <glyph glyph-name="ring" unicode="&#x2da;" 
 />
    <glyph glyph-name="ogonek" unicode="&#x2db;" 
 />
    <glyph glyph-name="tilde" unicode="&#x2dc;" horiz-adv-x="854" 
d="M747 847q3 -30 3 -31q-89 -52 -157 -68q-33 -7 -62 -7q-55 0 -101 25q-15 10 -32 19q-66 32 -127 32q-29 0 -57 -7q-15 -3 -28 -9q-37 -19 -55 -37l-1 -1q-4 0 -11 18q-6 19 -14 50q-13 58 -13 74q0 5 1 6q28 27 40 31q12 7 28 13q55 21 108 21q36 0 70 -9q18 -4 35 -11
q18 -5 42 -18q32 -18 38 -21q33 -14 71 -14q31 0 65 9q43 12 131 55q2 0 6 -9l7 -19q4 -10 7 -34q3 -25 3 -24q1 -3 3 -34z" />
    <glyph glyph-name="hungarumlaut" unicode="&#x2dd;" horiz-adv-x="1454" 
 />
    <glyph glyph-name="endash" unicode="&#x2013;" horiz-adv-x="905" 
 />
    <glyph glyph-name="emdash" unicode="&#x2014;" horiz-adv-x="1185" 
d="M1103 582q-2 -52 -10 -144q0 -4 -6 -8q-11 0 -457 -14q-78 -2 -196 -5t-192.5 -5.5t-107.5 -4.5q-2 0 -8 7q-6 18 -21.5 65t-21.5 70q0 8 6 8q195 12 576 24q356 9 430 13q2 1 4 1q4 0 4 -7z" />
    <glyph glyph-name="quoteleft" unicode="&#x2018;" horiz-adv-x="370" 
d="M61 1193q0 54 36 118.5t81 92.5q45 27 80 27q2 1 3 1q4 0 5 -4q1 -2 1 -3q0 -3 -3 -6q-45 -41 -68 -119q-1 -2 -1 -4q0 -4 7 -4q56 0 86.5 -38t30.5 -95q0 -41 -40 -79t-87 -38q-63 0 -97 45t-34 106z" />
    <glyph glyph-name="quoteright" unicode="&#x2019;" horiz-adv-x="370" 
d="M319 1280q0 -53 -36 -117.5t-81 -93.5q-45 -27 -80 -27q-2 -1 -3 -1q-4 0 -5 5q-1 1 -1 3q0 3 3 6q45 41 68 119q1 2 1 4q0 4 -7 4q-56 0 -86.5 37.5t-30.5 95.5q0 41 40 79t87 38q63 0 97 -45.5t34 -106.5z" />
    <glyph glyph-name="quotesinglbase" unicode="&#x201a;" horiz-adv-x="909" 
 />
    <glyph glyph-name="quotedblleft" unicode="&#x201c;" horiz-adv-x="765" 
d="M694 1145q-4 -39 -48 -72q-36 -27 -75 -27q-8 0 -16 1q-64 6 -91 55q-23 40 -23 87q0 10 1 21q10 78 80 150q63 66 132 66q6 0 13 -1q10 -2 10 -6q0 -3 -6 -6q-53 -43 -80 -113q-1 -2 -1 -4q0 -4 6 -4q55 -4 81 -47q19 -33 19 -74q0 -12 -2 -26zM337 1190q-4 -51 -46 -90
q-40 -37 -88 -37h-5q-69 2 -103 50q-32 45 -32 107v7q4 82 71.5 164t149.5 82q6 0 7 -5v-3q0 -3 -3 -5q-39 -41 -65 -125q0 -8 6 -8q108 -17 108 -127v-10z" />
    <glyph glyph-name="quotedblright" unicode="&#x201d;" horiz-adv-x="770" 
d="M708 1311v-13q0 -53 -27 -115q-32 -71 -78 -104q-43 -32 -83 -37q-2 -1 -4 -1q-4 0 -6 4q-1 1 -1 3q0 3 2 5q39 49 52 131q0 8 -7 8h-10q-17 0 -36 5q-25 7 -51 41t-26 89q0 51 36 89t85 42q8 1 16 1q57 0 93 -40q41 -45 45 -108zM329 1280q0 -78 -60.5 -157t-136.5 -83
q-11 0 -11 5q0 3 5 8q45 45 68 121q1 2 1 4q0 4 -7 4q-58 2 -87.5 38.5t-29.5 94.5q0 41 40 79t87 38q63 0 97 -45.5t34 -106.5z" />
    <glyph glyph-name="quotedblbase" unicode="&#x201e;" horiz-adv-x="514" 
 />
    <glyph glyph-name="dagger" unicode="&#x2020;" horiz-adv-x="514" 
 />
    <glyph glyph-name="daggerdbl" unicode="&#x2021;" horiz-adv-x="1139" 
 />
    <glyph glyph-name="bullet" unicode="&#x2022;" horiz-adv-x="466" 
d="M384 489q0 -55 -51 -96t-111 -41q-71 0 -106 47t-35 121q0 49 50 94t104 45q61 0 105 -52t44 -118z" />
    <glyph glyph-name="ellipsis" unicode="&#x2026;" horiz-adv-x="1163" 
d="M308 150q0 -62 -42 -96.5t-106 -34.5q-53 0 -92 41t-39 94q0 59 42 104t101 45q56 0 96 -48t40 -105zM711 152q0 -62 -42 -96.5t-106 -34.5q-53 0 -92 41t-39 94q0 59 42 104t101 45q56 0 96 -48t40 -105zM1106 156q0 -62 -42 -96.5t-106 -34.5q-53 0 -92 41t-39 94
q0 59 42 104t101 45q56 0 96 -48t40 -105z" />
    <glyph glyph-name="guilsinglleft" unicode="&#x2039;" 
 />
    <glyph glyph-name="guilsinglright" unicode="&#x203a;" horiz-adv-x="1251" 
 />
    <glyph glyph-name="fraction" unicode="&#x2044;" 
 />
    <glyph glyph-name="fraction" unicode="&#x2215;" 
 />
    <glyph glyph-name="franc" unicode="&#x20a3;" 
 />
    <glyph glyph-name="lira" unicode="&#x20a4;" horiz-adv-x="514" 
 />
    <glyph glyph-name="peseta" unicode="&#x20a7;" horiz-adv-x="1139" 
 />
    <glyph glyph-name="Euro" unicode="&#x20ac;" horiz-adv-x="958" 
d="M107 712q44 142 161 246q186 164 452 164q88 0 166 -30q10 -7 10 -17q-47 -198 -51 -225q-3 -7 -7 -7q-1 0 -3 1q-62 30 -131 30q-156 0 -268 -95q-37 -31 -61 -67q177 2 310 7q6 0 6 -8v-62q0 -6 -8 -6l-342 1q-17 -50 -18 -109q208 2 359 8q6 0 6 -8v-62q0 -6 -8 -6
l-353 1q33 -253 342 -253q59 0 104 14q2 1 3 1q4 0 7 -7q13 -135 23 -184q0 -14 -10 -19q-21 -10 -86.5 -19t-100.5 -9q-235 0 -381 152q-128 131 -145 325h-51q-2 0 -8 6l-6 56q0 7 4 7q2 0 4 -1l55 -1q1 57 10 109h-56q-2 0 -8 6l-6 56q0 7 4 7q2 0 4 -1z" />
    <glyph glyph-name="afii61352" unicode="&#x2116;" 
 />
    <glyph glyph-name="trademark" unicode="&#x2122;" horiz-adv-x="962" 
d="M455 1367q-4 -45 -11 -117q0 -2 -2 -2q-13 -1 -74 -2.5t-74 -1.5q-2 0 -2 -4q2 -23 43 -384q0 -4 -3 -4q-10 0 -29 1t-29 1h-56q-3 0 -3 3q-2 38 -4 85t-4 84q-1 26 -2.5 103.5t-3.5 113.5q0 4 -4 4q-5 0 -32 -0.5t-38 -0.5q-21 0 -51 -3q-4 0 -4 4v20q0 10 -0.5 17
t-0.5 9l-3 29q0 4 3 4q133 15 380 45q4 0 4 -4zM878 865q0 -3 -3 -3q-24 -2 -105 -9h-1q-2 0 -2 3q8 108 8 225q0 3 -1 4h-1q-1 0 -3 -3q-39 -60 -73 -116q-1 -3 -2 -3t-3 3q-9 11 -94 134q-1 1 -3 1h-1q-2 -1 -2 -3q-5 -149 -8 -236q0 -3 -2 -3q-18 -4 -52 -7q-3 0 -23 -3
t-33 -4q-4 0 -4 3q6 84 50 528q1 5 3 5t4 -4q55 -93 91 -147q19 -28 77 -120q2 -2 3 -2q2 0 3 2q4 7 47 87q14 29 47.5 93t45.5 88q0 1 2 4t3.5 5.5t3.5 2.5q3 0 4.5 -3t1.5 -7v-4q0 -1 2.5 -54.5t4.5 -118.5t3 -91q2 -105 12 -247z" />
    <glyph glyph-name="partialdiff" unicode="&#x2202;" 
 />
    <glyph glyph-name="Delta" unicode="&#x2206;" 
 />
    <glyph glyph-name="product" unicode="&#x220f;" 
 />
    <glyph glyph-name="summation" unicode="&#x2211;" horiz-adv-x="868" 
 />
    <glyph glyph-name="minus" unicode="&#x2212;" horiz-adv-x="514" 
 />
    <glyph glyph-name="radical" unicode="&#x221a;" horiz-adv-x="1139" 
 />
    <glyph glyph-name="infinity" unicode="&#x221e;" horiz-adv-x="1108" 
 />
    <glyph glyph-name="integral" unicode="&#x222b;" 
 />
    <glyph glyph-name="approxequal" unicode="&#x2248;" horiz-adv-x="854" 
d="M747 847q3 -30 3 -31q-89 -52 -157 -68q-33 -7 -62 -7q-55 0 -101 25q-15 10 -32 19q-66 32 -127 32q-29 0 -57 -7q-15 -3 -28 -9q-37 -19 -55 -37l-1 -1q-4 0 -11 18q-6 19 -14 50q-13 58 -13 74q0 5 1 6q28 27 40 31q12 7 28 13q55 21 108 21q36 0 70 -9q18 -4 35 -11
q18 -5 42 -18q32 -18 38 -21q33 -14 71 -14q31 0 65 9q43 12 131 55q2 0 6 -9l7 -19q4 -10 7 -34q3 -25 3 -24q1 -3 3 -34zM747 597q3 -30 3 -31q-89 -52 -157 -68q-33 -7 -62 -7q-55 0 -101 25q-15 10 -32 19q-66 32 -127 32q-29 0 -57 -7q-15 -3 -28 -9q-37 -19 -55 -37
l-1 -1q-4 0 -11 18q-6 19 -14 50q-13 58 -13 74q0 5 1 6q28 27 40 31q12 7 28 13q55 21 108 21q36 0 70 -9q18 -4 35 -11q18 -5 42 -18q32 -18 38 -21q33 -14 71 -14q31 0 65 9q43 12 131 55q2 0 6 -9l7 -19q4 -10 7 -34q3 -25 3 -24q1 -3 3 -34z" />
    <glyph glyph-name="lessequal" unicode="&#x2264;" 
 />
    <glyph glyph-name="greaterequal" unicode="&#x2265;" 
 />
    <glyph glyph-name="uniF001" unicode="&#xf001;" horiz-adv-x="1073" 
 />
    <glyph glyph-name="uniF001" unicode="&#xfb01;" horiz-adv-x="1073" 
 />
    <glyph glyph-name="uniF002" unicode="&#xf002;" horiz-adv-x="1081" 
 />
    <glyph glyph-name="uniF002" unicode="&#xfb02;" horiz-adv-x="1081" 
 />
    </font>
</defs>
</svg>
